<?xml version="1.0" encoding="utf-8" standalone="no"?>
<!DOCTYPE svg PUBLIC "-//W3C//DTD SVG 1.1//EN"
  "http://www.w3.org/Graphics/SVG/1.1/DTD/svg11.dtd">
<svg xmlns:xlink="http://www.w3.org/1999/xlink" width="460.8pt" height="345.6pt" viewBox="0 0 460.8 345.6" xmlns="http://www.w3.org/2000/svg" version="1.1">
 <metadata>
  <rdf:RDF xmlns:dc="http://purl.org/dc/elements/1.1/" xmlns:cc="http://creativecommons.org/ns#" xmlns:rdf="http://www.w3.org/1999/02/22-rdf-syntax-ns#">
   <cc:Work>
    <dc:type rdf:resource="http://purl.org/dc/dcmitype/StillImage"/>
    <dc:date>2022-12-13T15:46:20.208411</dc:date>
    <dc:format>image/svg+xml</dc:format>
    <dc:creator>
     <cc:Agent>
      <dc:title>Matplotlib v3.6.1, https://matplotlib.org/</dc:title>
     </cc:Agent>
    </dc:creator>
   </cc:Work>
  </rdf:RDF>
 </metadata>
 <defs>
  <style type="text/css">*{stroke-linejoin: round; stroke-linecap: butt}</style>
 </defs>
 <g id="figure_1">
  <g id="patch_1">
   <path d="M 0 345.6 
L 460.8 345.6 
L 460.8 0 
L 0 0 
z
" style="fill: #ffffff"/>
  </g>
  <g id="axes_1">
   <g id="patch_2">
    <path d="M 57.6 307.584 
L 414.72 307.584 
L 414.72 41.472 
L 57.6 41.472 
z
" style="fill: #ffffff"/>
   </g>
   <g id="matplotlib.axis_1">
    <g id="xtick_1">
     <g id="line2d_1">
      <defs>
       <path id="m5910859697" d="M 0 0 
L 0 3.5 
" style="stroke: #000000; stroke-width: 0.8"/>
      </defs>
      <g>
       <use xlink:href="#m5910859697" x="73.832727" y="307.584" style="stroke: #000000; stroke-width: 0.8"/>
      </g>
     </g>
     <g id="text_1">
      <!-- 0 -->
      <g transform="translate(70.651477 322.182437) scale(0.1 -0.1)">
       <defs>
        <path id="DejaVuSans-30" d="M 2034 4250 
Q 1547 4250 1301 3770 
Q 1056 3291 1056 2328 
Q 1056 1369 1301 889 
Q 1547 409 2034 409 
Q 2525 409 2770 889 
Q 3016 1369 3016 2328 
Q 3016 3291 2770 3770 
Q 2525 4250 2034 4250 
z
M 2034 4750 
Q 2819 4750 3233 4129 
Q 3647 3509 3647 2328 
Q 3647 1150 3233 529 
Q 2819 -91 2034 -91 
Q 1250 -91 836 529 
Q 422 1150 422 2328 
Q 422 3509 836 4129 
Q 1250 4750 2034 4750 
z
" transform="scale(0.015625)"/>
       </defs>
       <use xlink:href="#DejaVuSans-30"/>
      </g>
     </g>
    </g>
    <g id="xtick_2">
     <g id="line2d_2">
      <g>
       <use xlink:href="#m5910859697" x="126.196364" y="307.584" style="stroke: #000000; stroke-width: 0.8"/>
      </g>
     </g>
     <g id="text_2">
      <!-- 500 -->
      <g transform="translate(116.652614 322.182437) scale(0.1 -0.1)">
       <defs>
        <path id="DejaVuSans-35" d="M 691 4666 
L 3169 4666 
L 3169 4134 
L 1269 4134 
L 1269 2991 
Q 1406 3038 1543 3061 
Q 1681 3084 1819 3084 
Q 2600 3084 3056 2656 
Q 3513 2228 3513 1497 
Q 3513 744 3044 326 
Q 2575 -91 1722 -91 
Q 1428 -91 1123 -41 
Q 819 9 494 109 
L 494 744 
Q 775 591 1075 516 
Q 1375 441 1709 441 
Q 2250 441 2565 725 
Q 2881 1009 2881 1497 
Q 2881 1984 2565 2268 
Q 2250 2553 1709 2553 
Q 1456 2553 1204 2497 
Q 953 2441 691 2322 
L 691 4666 
z
" transform="scale(0.015625)"/>
       </defs>
       <use xlink:href="#DejaVuSans-35"/>
       <use xlink:href="#DejaVuSans-30" x="63.623047"/>
       <use xlink:href="#DejaVuSans-30" x="127.246094"/>
      </g>
     </g>
    </g>
    <g id="xtick_3">
     <g id="line2d_3">
      <g>
       <use xlink:href="#m5910859697" x="178.56" y="307.584" style="stroke: #000000; stroke-width: 0.8"/>
      </g>
     </g>
     <g id="text_3">
      <!-- 1000 -->
      <g transform="translate(165.835 322.182437) scale(0.1 -0.1)">
       <defs>
        <path id="DejaVuSans-31" d="M 794 531 
L 1825 531 
L 1825 4091 
L 703 3866 
L 703 4441 
L 1819 4666 
L 2450 4666 
L 2450 531 
L 3481 531 
L 3481 0 
L 794 0 
L 794 531 
z
" transform="scale(0.015625)"/>
       </defs>
       <use xlink:href="#DejaVuSans-31"/>
       <use xlink:href="#DejaVuSans-30" x="63.623047"/>
       <use xlink:href="#DejaVuSans-30" x="127.246094"/>
       <use xlink:href="#DejaVuSans-30" x="190.869141"/>
      </g>
     </g>
    </g>
    <g id="xtick_4">
     <g id="line2d_4">
      <g>
       <use xlink:href="#m5910859697" x="230.923636" y="307.584" style="stroke: #000000; stroke-width: 0.8"/>
      </g>
     </g>
     <g id="text_4">
      <!-- 1500 -->
      <g transform="translate(218.198636 322.182437) scale(0.1 -0.1)">
       <use xlink:href="#DejaVuSans-31"/>
       <use xlink:href="#DejaVuSans-35" x="63.623047"/>
       <use xlink:href="#DejaVuSans-30" x="127.246094"/>
       <use xlink:href="#DejaVuSans-30" x="190.869141"/>
      </g>
     </g>
    </g>
    <g id="xtick_5">
     <g id="line2d_5">
      <g>
       <use xlink:href="#m5910859697" x="283.287273" y="307.584" style="stroke: #000000; stroke-width: 0.8"/>
      </g>
     </g>
     <g id="text_5">
      <!-- 2000 -->
      <g transform="translate(270.562273 322.182437) scale(0.1 -0.1)">
       <defs>
        <path id="DejaVuSans-32" d="M 1228 531 
L 3431 531 
L 3431 0 
L 469 0 
L 469 531 
Q 828 903 1448 1529 
Q 2069 2156 2228 2338 
Q 2531 2678 2651 2914 
Q 2772 3150 2772 3378 
Q 2772 3750 2511 3984 
Q 2250 4219 1831 4219 
Q 1534 4219 1204 4116 
Q 875 4013 500 3803 
L 500 4441 
Q 881 4594 1212 4672 
Q 1544 4750 1819 4750 
Q 2544 4750 2975 4387 
Q 3406 4025 3406 3419 
Q 3406 3131 3298 2873 
Q 3191 2616 2906 2266 
Q 2828 2175 2409 1742 
Q 1991 1309 1228 531 
z
" transform="scale(0.015625)"/>
       </defs>
       <use xlink:href="#DejaVuSans-32"/>
       <use xlink:href="#DejaVuSans-30" x="63.623047"/>
       <use xlink:href="#DejaVuSans-30" x="127.246094"/>
       <use xlink:href="#DejaVuSans-30" x="190.869141"/>
      </g>
     </g>
    </g>
    <g id="xtick_6">
     <g id="line2d_6">
      <g>
       <use xlink:href="#m5910859697" x="335.650909" y="307.584" style="stroke: #000000; stroke-width: 0.8"/>
      </g>
     </g>
     <g id="text_6">
      <!-- 2500 -->
      <g transform="translate(322.925909 322.182437) scale(0.1 -0.1)">
       <use xlink:href="#DejaVuSans-32"/>
       <use xlink:href="#DejaVuSans-35" x="63.623047"/>
       <use xlink:href="#DejaVuSans-30" x="127.246094"/>
       <use xlink:href="#DejaVuSans-30" x="190.869141"/>
      </g>
     </g>
    </g>
    <g id="xtick_7">
     <g id="line2d_7">
      <g>
       <use xlink:href="#m5910859697" x="388.014545" y="307.584" style="stroke: #000000; stroke-width: 0.8"/>
      </g>
     </g>
     <g id="text_7">
      <!-- 3000 -->
      <g transform="translate(375.289545 322.182437) scale(0.1 -0.1)">
       <defs>
        <path id="DejaVuSans-33" d="M 2597 2516 
Q 3050 2419 3304 2112 
Q 3559 1806 3559 1356 
Q 3559 666 3084 287 
Q 2609 -91 1734 -91 
Q 1441 -91 1130 -33 
Q 819 25 488 141 
L 488 750 
Q 750 597 1062 519 
Q 1375 441 1716 441 
Q 2309 441 2620 675 
Q 2931 909 2931 1356 
Q 2931 1769 2642 2001 
Q 2353 2234 1838 2234 
L 1294 2234 
L 1294 2753 
L 1863 2753 
Q 2328 2753 2575 2939 
Q 2822 3125 2822 3475 
Q 2822 3834 2567 4026 
Q 2313 4219 1838 4219 
Q 1578 4219 1281 4162 
Q 984 4106 628 3988 
L 628 4550 
Q 988 4650 1302 4700 
Q 1616 4750 1894 4750 
Q 2613 4750 3031 4423 
Q 3450 4097 3450 3541 
Q 3450 3153 3228 2886 
Q 3006 2619 2597 2516 
z
" transform="scale(0.015625)"/>
       </defs>
       <use xlink:href="#DejaVuSans-33"/>
       <use xlink:href="#DejaVuSans-30" x="63.623047"/>
       <use xlink:href="#DejaVuSans-30" x="127.246094"/>
       <use xlink:href="#DejaVuSans-30" x="190.869141"/>
      </g>
     </g>
    </g>
    <g id="text_8">
     <!-- Training steps -->
     <g transform="translate(201.424844 335.860562) scale(0.1 -0.1)">
      <defs>
       <path id="DejaVuSans-54" d="M -19 4666 
L 3928 4666 
L 3928 4134 
L 2272 4134 
L 2272 0 
L 1638 0 
L 1638 4134 
L -19 4134 
L -19 4666 
z
" transform="scale(0.015625)"/>
       <path id="DejaVuSans-72" d="M 2631 2963 
Q 2534 3019 2420 3045 
Q 2306 3072 2169 3072 
Q 1681 3072 1420 2755 
Q 1159 2438 1159 1844 
L 1159 0 
L 581 0 
L 581 3500 
L 1159 3500 
L 1159 2956 
Q 1341 3275 1631 3429 
Q 1922 3584 2338 3584 
Q 2397 3584 2469 3576 
Q 2541 3569 2628 3553 
L 2631 2963 
z
" transform="scale(0.015625)"/>
       <path id="DejaVuSans-61" d="M 2194 1759 
Q 1497 1759 1228 1600 
Q 959 1441 959 1056 
Q 959 750 1161 570 
Q 1363 391 1709 391 
Q 2188 391 2477 730 
Q 2766 1069 2766 1631 
L 2766 1759 
L 2194 1759 
z
M 3341 1997 
L 3341 0 
L 2766 0 
L 2766 531 
Q 2569 213 2275 61 
Q 1981 -91 1556 -91 
Q 1019 -91 701 211 
Q 384 513 384 1019 
Q 384 1609 779 1909 
Q 1175 2209 1959 2209 
L 2766 2209 
L 2766 2266 
Q 2766 2663 2505 2880 
Q 2244 3097 1772 3097 
Q 1472 3097 1187 3025 
Q 903 2953 641 2809 
L 641 3341 
Q 956 3463 1253 3523 
Q 1550 3584 1831 3584 
Q 2591 3584 2966 3190 
Q 3341 2797 3341 1997 
z
" transform="scale(0.015625)"/>
       <path id="DejaVuSans-69" d="M 603 3500 
L 1178 3500 
L 1178 0 
L 603 0 
L 603 3500 
z
M 603 4863 
L 1178 4863 
L 1178 4134 
L 603 4134 
L 603 4863 
z
" transform="scale(0.015625)"/>
       <path id="DejaVuSans-6e" d="M 3513 2113 
L 3513 0 
L 2938 0 
L 2938 2094 
Q 2938 2591 2744 2837 
Q 2550 3084 2163 3084 
Q 1697 3084 1428 2787 
Q 1159 2491 1159 1978 
L 1159 0 
L 581 0 
L 581 3500 
L 1159 3500 
L 1159 2956 
Q 1366 3272 1645 3428 
Q 1925 3584 2291 3584 
Q 2894 3584 3203 3211 
Q 3513 2838 3513 2113 
z
" transform="scale(0.015625)"/>
       <path id="DejaVuSans-67" d="M 2906 1791 
Q 2906 2416 2648 2759 
Q 2391 3103 1925 3103 
Q 1463 3103 1205 2759 
Q 947 2416 947 1791 
Q 947 1169 1205 825 
Q 1463 481 1925 481 
Q 2391 481 2648 825 
Q 2906 1169 2906 1791 
z
M 3481 434 
Q 3481 -459 3084 -895 
Q 2688 -1331 1869 -1331 
Q 1566 -1331 1297 -1286 
Q 1028 -1241 775 -1147 
L 775 -588 
Q 1028 -725 1275 -790 
Q 1522 -856 1778 -856 
Q 2344 -856 2625 -561 
Q 2906 -266 2906 331 
L 2906 616 
Q 2728 306 2450 153 
Q 2172 0 1784 0 
Q 1141 0 747 490 
Q 353 981 353 1791 
Q 353 2603 747 3093 
Q 1141 3584 1784 3584 
Q 2172 3584 2450 3431 
Q 2728 3278 2906 2969 
L 2906 3500 
L 3481 3500 
L 3481 434 
z
" transform="scale(0.015625)"/>
       <path id="DejaVuSans-20" transform="scale(0.015625)"/>
       <path id="DejaVuSans-73" d="M 2834 3397 
L 2834 2853 
Q 2591 2978 2328 3040 
Q 2066 3103 1784 3103 
Q 1356 3103 1142 2972 
Q 928 2841 928 2578 
Q 928 2378 1081 2264 
Q 1234 2150 1697 2047 
L 1894 2003 
Q 2506 1872 2764 1633 
Q 3022 1394 3022 966 
Q 3022 478 2636 193 
Q 2250 -91 1575 -91 
Q 1294 -91 989 -36 
Q 684 19 347 128 
L 347 722 
Q 666 556 975 473 
Q 1284 391 1588 391 
Q 1994 391 2212 530 
Q 2431 669 2431 922 
Q 2431 1156 2273 1281 
Q 2116 1406 1581 1522 
L 1381 1569 
Q 847 1681 609 1914 
Q 372 2147 372 2553 
Q 372 3047 722 3315 
Q 1072 3584 1716 3584 
Q 2034 3584 2315 3537 
Q 2597 3491 2834 3397 
z
" transform="scale(0.015625)"/>
       <path id="DejaVuSans-74" d="M 1172 4494 
L 1172 3500 
L 2356 3500 
L 2356 3053 
L 1172 3053 
L 1172 1153 
Q 1172 725 1289 603 
Q 1406 481 1766 481 
L 2356 481 
L 2356 0 
L 1766 0 
Q 1100 0 847 248 
Q 594 497 594 1153 
L 594 3053 
L 172 3053 
L 172 3500 
L 594 3500 
L 594 4494 
L 1172 4494 
z
" transform="scale(0.015625)"/>
       <path id="DejaVuSans-65" d="M 3597 1894 
L 3597 1613 
L 953 1613 
Q 991 1019 1311 708 
Q 1631 397 2203 397 
Q 2534 397 2845 478 
Q 3156 559 3463 722 
L 3463 178 
Q 3153 47 2828 -22 
Q 2503 -91 2169 -91 
Q 1331 -91 842 396 
Q 353 884 353 1716 
Q 353 2575 817 3079 
Q 1281 3584 2069 3584 
Q 2775 3584 3186 3129 
Q 3597 2675 3597 1894 
z
M 3022 2063 
Q 3016 2534 2758 2815 
Q 2500 3097 2075 3097 
Q 1594 3097 1305 2825 
Q 1016 2553 972 2059 
L 3022 2063 
z
" transform="scale(0.015625)"/>
       <path id="DejaVuSans-70" d="M 1159 525 
L 1159 -1331 
L 581 -1331 
L 581 3500 
L 1159 3500 
L 1159 2969 
Q 1341 3281 1617 3432 
Q 1894 3584 2278 3584 
Q 2916 3584 3314 3078 
Q 3713 2572 3713 1747 
Q 3713 922 3314 415 
Q 2916 -91 2278 -91 
Q 1894 -91 1617 61 
Q 1341 213 1159 525 
z
M 3116 1747 
Q 3116 2381 2855 2742 
Q 2594 3103 2138 3103 
Q 1681 3103 1420 2742 
Q 1159 2381 1159 1747 
Q 1159 1113 1420 752 
Q 1681 391 2138 391 
Q 2594 391 2855 752 
Q 3116 1113 3116 1747 
z
" transform="scale(0.015625)"/>
      </defs>
      <use xlink:href="#DejaVuSans-54"/>
      <use xlink:href="#DejaVuSans-72" x="46.333984"/>
      <use xlink:href="#DejaVuSans-61" x="87.447266"/>
      <use xlink:href="#DejaVuSans-69" x="148.726562"/>
      <use xlink:href="#DejaVuSans-6e" x="176.509766"/>
      <use xlink:href="#DejaVuSans-69" x="239.888672"/>
      <use xlink:href="#DejaVuSans-6e" x="267.671875"/>
      <use xlink:href="#DejaVuSans-67" x="331.050781"/>
      <use xlink:href="#DejaVuSans-20" x="394.527344"/>
      <use xlink:href="#DejaVuSans-73" x="426.314453"/>
      <use xlink:href="#DejaVuSans-74" x="478.414062"/>
      <use xlink:href="#DejaVuSans-65" x="517.623047"/>
      <use xlink:href="#DejaVuSans-70" x="579.146484"/>
      <use xlink:href="#DejaVuSans-73" x="642.623047"/>
     </g>
    </g>
   </g>
   <g id="matplotlib.axis_2">
    <g id="ytick_1">
     <g id="line2d_8">
      <defs>
       <path id="m9d809f11b1" d="M 0 0 
L -3.5 0 
" style="stroke: #000000; stroke-width: 0.8"/>
      </defs>
      <g>
       <use xlink:href="#m9d809f11b1" x="57.6" y="295.943576" style="stroke: #000000; stroke-width: 0.8"/>
      </g>
     </g>
     <g id="text_9">
      <!-- 0.0 -->
      <g transform="translate(34.696875 299.742794) scale(0.1 -0.1)">
       <defs>
        <path id="DejaVuSans-2e" d="M 684 794 
L 1344 794 
L 1344 0 
L 684 0 
L 684 794 
z
" transform="scale(0.015625)"/>
       </defs>
       <use xlink:href="#DejaVuSans-30"/>
       <use xlink:href="#DejaVuSans-2e" x="63.623047"/>
       <use xlink:href="#DejaVuSans-30" x="95.410156"/>
      </g>
     </g>
    </g>
    <g id="ytick_2">
     <g id="line2d_9">
      <g>
       <use xlink:href="#m9d809f11b1" x="57.6" y="250.435795" style="stroke: #000000; stroke-width: 0.8"/>
      </g>
     </g>
     <g id="text_10">
      <!-- 0.5 -->
      <g transform="translate(34.696875 254.235014) scale(0.1 -0.1)">
       <use xlink:href="#DejaVuSans-30"/>
       <use xlink:href="#DejaVuSans-2e" x="63.623047"/>
       <use xlink:href="#DejaVuSans-35" x="95.410156"/>
      </g>
     </g>
    </g>
    <g id="ytick_3">
     <g id="line2d_10">
      <g>
       <use xlink:href="#m9d809f11b1" x="57.6" y="204.928015" style="stroke: #000000; stroke-width: 0.8"/>
      </g>
     </g>
     <g id="text_11">
      <!-- 1.0 -->
      <g transform="translate(34.696875 208.727234) scale(0.1 -0.1)">
       <use xlink:href="#DejaVuSans-31"/>
       <use xlink:href="#DejaVuSans-2e" x="63.623047"/>
       <use xlink:href="#DejaVuSans-30" x="95.410156"/>
      </g>
     </g>
    </g>
    <g id="ytick_4">
     <g id="line2d_11">
      <g>
       <use xlink:href="#m9d809f11b1" x="57.6" y="159.420235" style="stroke: #000000; stroke-width: 0.8"/>
      </g>
     </g>
     <g id="text_12">
      <!-- 1.5 -->
      <g transform="translate(34.696875 163.219454) scale(0.1 -0.1)">
       <use xlink:href="#DejaVuSans-31"/>
       <use xlink:href="#DejaVuSans-2e" x="63.623047"/>
       <use xlink:href="#DejaVuSans-35" x="95.410156"/>
      </g>
     </g>
    </g>
    <g id="ytick_5">
     <g id="line2d_12">
      <g>
       <use xlink:href="#m9d809f11b1" x="57.6" y="113.912455" style="stroke: #000000; stroke-width: 0.8"/>
      </g>
     </g>
     <g id="text_13">
      <!-- 2.0 -->
      <g transform="translate(34.696875 117.711673) scale(0.1 -0.1)">
       <use xlink:href="#DejaVuSans-32"/>
       <use xlink:href="#DejaVuSans-2e" x="63.623047"/>
       <use xlink:href="#DejaVuSans-30" x="95.410156"/>
      </g>
     </g>
    </g>
    <g id="ytick_6">
     <g id="line2d_13">
      <g>
       <use xlink:href="#m9d809f11b1" x="57.6" y="68.404674" style="stroke: #000000; stroke-width: 0.8"/>
      </g>
     </g>
     <g id="text_14">
      <!-- 2.5 -->
      <g transform="translate(34.696875 72.203893) scale(0.1 -0.1)">
       <use xlink:href="#DejaVuSans-32"/>
       <use xlink:href="#DejaVuSans-2e" x="63.623047"/>
       <use xlink:href="#DejaVuSans-35" x="95.410156"/>
      </g>
     </g>
    </g>
    <g id="text_15">
     <!-- Loss -->
     <g transform="translate(28.617188 185.495187) rotate(-90) scale(0.1 -0.1)">
      <defs>
       <path id="DejaVuSans-4c" d="M 628 4666 
L 1259 4666 
L 1259 531 
L 3531 531 
L 3531 0 
L 628 0 
L 628 4666 
z
" transform="scale(0.015625)"/>
       <path id="DejaVuSans-6f" d="M 1959 3097 
Q 1497 3097 1228 2736 
Q 959 2375 959 1747 
Q 959 1119 1226 758 
Q 1494 397 1959 397 
Q 2419 397 2687 759 
Q 2956 1122 2956 1747 
Q 2956 2369 2687 2733 
Q 2419 3097 1959 3097 
z
M 1959 3584 
Q 2709 3584 3137 3096 
Q 3566 2609 3566 1747 
Q 3566 888 3137 398 
Q 2709 -91 1959 -91 
Q 1206 -91 779 398 
Q 353 888 353 1747 
Q 353 2609 779 3096 
Q 1206 3584 1959 3584 
z
" transform="scale(0.015625)"/>
      </defs>
      <use xlink:href="#DejaVuSans-4c"/>
      <use xlink:href="#DejaVuSans-6f" x="53.962891"/>
      <use xlink:href="#DejaVuSans-73" x="115.144531"/>
      <use xlink:href="#DejaVuSans-73" x="167.244141"/>
     </g>
    </g>
   </g>
   <g id="line2d_14">
    <path d="M 73.832727 77.964432 
L 73.937455 77.486649 
L 74.042182 53.568 
L 74.146909 55.951832 
L 74.251636 78.34774 
L 74.356364 77.211148 
L 74.461091 89.583658 
L 74.565818 82.149393 
L 74.775273 108.775114 
L 74.88 97.933568 
L 74.984727 101.908776 
L 75.089455 95.924535 
L 75.194182 102.930967 
L 75.298909 101.791662 
L 75.508364 91.618752 
L 75.613091 115.305137 
L 75.822545 95.259566 
L 76.032 119.54849 
L 76.136727 118.726642 
L 76.241455 101.597644 
L 76.555636 127.430812 
L 76.660364 111.580486 
L 76.765091 114.462306 
L 76.974545 128.977227 
L 77.079273 104.9898 
L 77.184 122.327344 
L 77.288727 116.566102 
L 77.393455 120.431172 
L 77.498182 131.88232 
L 77.602909 131.128274 
L 77.812364 96.170047 
L 77.917091 124.950373 
L 78.021818 99.914868 
L 78.231273 119.017072 
L 78.336 122.165637 
L 78.440727 114.451847 
L 78.545455 134.463099 
L 78.650182 133.115389 
L 78.754909 107.206175 
L 78.859636 127.056425 
L 78.964364 117.954943 
L 79.069091 123.996829 
L 79.173818 115.743397 
L 79.278545 140.509477 
L 79.383273 108.110427 
L 79.592727 118.286364 
L 79.697455 140.458211 
L 79.802182 116.398655 
L 79.906909 134.747388 
L 80.011636 105.056245 
L 80.116364 126.023547 
L 80.221091 116.483924 
L 80.325818 122.535207 
L 80.430545 120.975512 
L 80.535273 145.812615 
L 80.64 117.443902 
L 80.849455 130.258524 
L 80.954182 111.557267 
L 81.373091 131.64602 
L 81.477818 119.361079 
L 81.687273 134.887992 
L 81.792 120.047411 
L 81.896727 125.270412 
L 82.001455 109.993492 
L 82.106182 115.320251 
L 82.210909 134.263754 
L 82.315636 115.330016 
L 82.525091 137.39701 
L 82.839273 106.04721 
L 83.153455 129.714694 
L 83.362909 114.223272 
L 83.467636 143.307395 
L 83.572364 137.276565 
L 83.677091 119.543792 
L 83.781818 127.623083 
L 83.886545 123.426602 
L 83.991273 135.067634 
L 84.096 106.430797 
L 84.200727 152.39091 
L 84.514909 124.705632 
L 84.619636 121.975092 
L 84.829091 113.742589 
L 85.143273 147.199688 
L 85.248 117.984889 
L 85.352727 125.877171 
L 85.457455 153.429679 
L 85.666909 119.19219 
L 85.771636 115.882938 
L 85.876364 120.680069 
L 86.085818 138.46554 
L 86.190545 124.505473 
L 86.295273 125.684759 
L 86.4 119.009564 
L 86.714182 138.601609 
L 86.923636 125.59094 
L 87.028364 139.261684 
L 87.133091 137.03101 
L 87.237818 137.308496 
L 87.342545 144.661842 
L 87.447273 130.896465 
L 87.656727 148.504053 
L 87.866182 144.308928 
L 87.970909 148.123905 
L 88.075636 132.177394 
L 88.285091 150.341125 
L 88.389818 137.270077 
L 88.494545 142.231703 
L 88.599273 155.85141 
L 88.704 150.286821 
L 88.808727 138.150709 
L 88.913455 140.46279 
L 89.122909 127.966439 
L 89.227636 126.831485 
L 89.332364 123.661654 
L 89.437091 133.666651 
L 89.541818 117.882921 
L 89.646545 141.371382 
L 89.856 120.873165 
L 89.960727 132.89059 
L 90.065455 97.49929 
L 90.274909 149.916308 
L 90.379636 115.881017 
L 90.484364 131.674555 
L 90.589091 109.318802 
L 90.693818 130.010701 
L 90.798545 123.072591 
L 90.903273 152.753351 
L 91.008 145.339126 
L 91.112727 127.572186 
L 91.217455 131.864678 
L 91.426909 160.548733 
L 91.531636 144.436436 
L 91.636364 146.197071 
L 91.741091 131.360646 
L 91.845818 155.118325 
L 91.950545 152.019702 
L 92.055273 163.885208 
L 92.16 139.576885 
L 92.264727 151.604173 
L 92.369455 148.702996 
L 92.578909 118.39023 
L 92.683636 151.739883 
L 92.997818 137.35055 
L 93.102545 136.778728 
L 93.207273 133.512387 
L 93.416727 143.857691 
L 93.521455 124.273773 
L 93.730909 163.628575 
L 93.835636 141.111788 
L 93.940364 151.983236 
L 94.045091 147.669435 
L 94.254545 128.47837 
L 94.359273 152.70585 
L 94.464 152.082209 
L 94.568727 141.26795 
L 94.673455 149.488887 
L 94.778182 179.257401 
L 94.987636 148.944493 
L 95.092364 156.143511 
L 95.406545 144.724197 
L 95.511273 124.826467 
L 95.616 161.592298 
L 95.825455 141.52365 
L 96.034909 164.478437 
L 96.139636 137.012869 
L 96.244364 146.607371 
L 96.349091 136.48832 
L 96.453818 162.616616 
L 96.663273 145.235433 
L 96.977455 160.901702 
L 97.186909 139.47802 
L 97.291636 146.338022 
L 97.396364 145.187987 
L 97.605818 164.765764 
L 97.815273 128.592782 
L 97.92 161.444501 
L 98.129455 130.390903 
L 98.234182 147.251508 
L 98.338909 142.819215 
L 98.443636 160.955615 
L 98.548364 147.807663 
L 98.653091 165.11908 
L 98.862545 121.503859 
L 99.072 161.96114 
L 99.176727 153.101709 
L 99.281455 158.855085 
L 99.386182 146.245201 
L 99.490909 148.530429 
L 99.595636 160.375829 
L 99.700364 157.532613 
L 99.805091 149.32398 
L 100.014545 163.326872 
L 100.119273 145.965675 
L 100.224 160.289171 
L 100.433455 144.564595 
L 100.538182 152.215988 
L 100.642909 172.493063 
L 100.747636 130.549638 
L 100.852364 166.002826 
L 100.957091 147.194784 
L 101.061818 148.108346 
L 101.166545 153.184374 
L 101.271273 172.139638 
L 101.376 150.26383 
L 101.480727 157.905437 
L 101.585455 151.362839 
L 101.690182 160.031714 
L 101.794909 144.281119 
L 101.899636 161.001836 
L 102.004364 154.441216 
L 102.213818 174.100964 
L 102.423273 121.634405 
L 102.528 166.382377 
L 102.842182 148.242809 
L 102.946909 151.560556 
L 103.051636 133.137556 
L 103.156364 139.05839 
L 103.261091 172.9872 
L 103.470545 153.803838 
L 103.575273 147.290979 
L 103.68 163.068362 
L 103.784727 144.541463 
L 103.889455 161.799596 
L 103.994182 148.442262 
L 104.098909 152.001496 
L 104.203636 163.136239 
L 104.413091 144.543188 
L 104.832 180.521468 
L 104.936727 153.065806 
L 105.041455 167.891978 
L 105.146182 164.992874 
L 105.250909 134.917916 
L 105.355636 142.811066 
L 105.460364 163.505287 
L 105.565091 143.757004 
L 105.669818 182.054657 
L 105.774545 150.816709 
L 105.879273 160.044582 
L 105.984 145.754861 
L 106.088727 181.804784 
L 106.193455 149.624381 
L 106.298182 153.378891 
L 106.402909 170.002913 
L 106.612364 155.677898 
L 106.717091 159.27438 
L 106.821818 155.643157 
L 107.136 180.969754 
L 107.240727 151.625417 
L 107.345455 174.325947 
L 107.450182 163.298174 
L 107.554909 174.717867 
L 107.659636 161.190125 
L 107.764364 132.541701 
L 107.869091 186.026198 
L 107.973818 161.441929 
L 108.288 171.673819 
L 108.392727 170.531422 
L 108.497455 159.721493 
L 108.602182 172.272853 
L 108.706909 169.136158 
L 108.811636 174.689853 
L 108.916364 170.799849 
L 109.125818 150.075888 
L 109.230545 159.98009 
L 109.335273 182.698761 
L 109.44 163.793092 
L 109.544727 165.971947 
L 109.754182 196.91238 
L 109.858909 171.962253 
L 109.963636 187.873068 
L 110.173091 165.05959 
L 110.277818 171.299845 
L 110.382545 154.79719 
L 110.487273 169.72393 
L 110.592 144.040436 
L 110.696727 154.355393 
L 110.801455 185.957181 
L 110.906182 163.747056 
L 111.115636 171.043896 
L 111.220364 157.585593 
L 111.325091 179.941205 
L 111.429818 156.946089 
L 111.534545 193.030014 
L 111.639273 150.501346 
L 111.744 167.095888 
L 111.953455 155.985276 
L 112.162909 166.044533 
L 112.372364 176.852629 
L 112.477091 147.027576 
L 112.686545 168.038842 
L 112.791273 150.773157 
L 112.896 174.299419 
L 113.000727 144.439224 
L 113.105455 169.630306 
L 113.210182 157.817965 
L 113.314909 180.892643 
L 113.419636 172.916925 
L 113.524364 173.997618 
L 113.733818 157.05436 
L 113.838545 179.657751 
L 113.943273 162.982181 
L 114.048 191.537242 
L 114.257455 161.652016 
L 114.362182 173.730027 
L 114.466909 155.869182 
L 114.571636 180.036749 
L 114.676364 148.060661 
L 114.781091 170.178779 
L 114.990545 157.026519 
L 115.2 151.606874 
L 115.304727 156.393427 
L 115.409455 179.732105 
L 115.514182 159.98775 
L 115.618909 173.423539 
L 115.723636 144.067018 
L 115.828364 167.636159 
L 115.933091 166.604822 
L 116.037818 147.829493 
L 116.142545 198.312668 
L 116.352 149.570327 
L 116.456727 176.562188 
L 116.561455 169.92819 
L 116.666182 174.596772 
L 116.770909 174.075879 
L 116.875636 178.340975 
L 116.980364 167.618159 
L 117.085091 176.292003 
L 117.189818 161.021951 
L 117.294545 168.429385 
L 117.399273 190.764132 
L 117.504 151.725518 
L 117.608727 159.860958 
L 117.713455 190.985036 
L 117.818182 182.166422 
L 117.922909 158.08701 
L 118.027636 188.44515 
L 118.132364 153.820688 
L 118.341818 193.127902 
L 118.446545 170.615184 
L 118.551273 177.984794 
L 118.656 195.579774 
L 118.865455 141.471397 
L 118.970182 176.113707 
L 119.074909 162.894015 
L 119.179636 167.944416 
L 119.284364 198.987326 
L 119.389091 154.534677 
L 119.493818 190.100541 
L 119.703273 175.559114 
L 119.808 163.572741 
L 119.912727 167.223396 
L 120.017455 174.774222 
L 120.122182 172.655562 
L 120.226909 152.247702 
L 120.331636 205.725391 
L 120.436364 197.655609 
L 120.541091 145.257893 
L 120.750545 167.62008 
L 120.96 169.334646 
L 121.169455 184.32476 
L 121.274182 173.997542 
L 121.378909 177.509677 
L 121.483636 175.083748 
L 121.588364 175.572416 
L 121.693091 187.563889 
L 121.902545 161.48087 
L 122.112 182.765672 
L 122.216727 179.43689 
L 122.321455 191.021427 
L 122.426182 172.989413 
L 122.530909 174.532692 
L 122.635636 193.997565 
L 122.740364 163.776101 
L 122.949818 182.879683 
L 123.054545 163.267599 
L 123.264 183.120876 
L 123.368727 176.434246 
L 123.473455 203.667126 
L 123.578182 167.042138 
L 123.682909 206.729505 
L 123.787636 174.731625 
L 123.892364 183.034468 
L 123.997091 201.320391 
L 124.206545 180.863609 
L 124.311273 199.929987 
L 124.520727 163.789153 
L 124.625455 186.259069 
L 124.730182 178.632837 
L 124.834909 197.560955 
L 124.939636 190.337113 
L 125.044364 199.277257 
L 125.253818 181.872292 
L 125.463273 216.283136 
L 125.568 173.725926 
L 125.672727 193.076604 
L 125.777455 168.675449 
L 125.986909 193.539428 
L 126.091636 184.513342 
L 126.196364 145.480511 
L 126.405818 185.575352 
L 126.510545 183.71442 
L 126.615273 198.983051 
L 126.824727 169.565933 
L 126.929455 203.960855 
L 127.034182 199.566418 
L 127.243636 179.396323 
L 127.348364 187.624128 
L 127.453091 179.143227 
L 127.662545 183.679191 
L 128.081455 194.209637 
L 128.186182 177.776823 
L 128.290909 188.591353 
L 128.395636 180.652296 
L 128.500364 201.883305 
L 128.709818 169.919564 
L 128.814545 211.134136 
L 129.024 178.699672 
L 129.128727 182.894396 
L 129.233455 179.012193 
L 129.442909 190.469536 
L 129.652364 163.910802 
L 129.757091 187.084171 
L 129.861818 171.651143 
L 130.176 188.074908 
L 130.280727 173.974834 
L 130.385455 197.661924 
L 130.490182 183.955722 
L 130.594909 191.618811 
L 130.699636 188.573733 
L 130.804364 193.274528 
L 130.909091 172.88609 
L 131.118545 202.457124 
L 131.328 141.592275 
L 131.642182 199.029955 
L 131.746909 155.864126 
L 131.956364 196.407339 
L 132.165818 176.883063 
L 132.270545 193.651475 
L 132.48 185.165757 
L 132.584727 203.461315 
L 132.689455 189.873442 
L 132.794182 191.203813 
L 132.898909 188.423234 
L 133.003636 199.329087 
L 133.108364 175.946434 
L 133.213091 189.555779 
L 133.317818 176.924835 
L 133.422545 189.173851 
L 133.527273 187.173651 
L 133.632 203.432042 
L 133.841455 180.122344 
L 133.946182 175.140232 
L 134.050909 183.32211 
L 134.155636 179.776633 
L 134.260364 188.284073 
L 134.365091 179.169419 
L 134.469818 182.778334 
L 134.679273 209.683304 
L 134.784 181.844972 
L 134.888727 190.896023 
L 134.993455 180.690423 
L 135.098182 182.66888 
L 135.202909 182.568508 
L 135.307636 195.694305 
L 135.412364 192.484926 
L 135.621818 166.414808 
L 135.831273 192.348413 
L 135.936 163.639023 
L 136.145455 175.997732 
L 136.354909 178.878435 
L 136.459636 203.33461 
L 136.564364 187.444084 
L 136.669091 199.173532 
L 136.983273 179.33157 
L 137.088 187.199387 
L 137.297455 182.445503 
L 137.402182 174.351694 
L 137.506909 210.324788 
L 137.611636 183.370815 
L 137.716364 200.52978 
L 137.925818 186.362772 
L 138.030545 193.867594 
L 138.24 183.171632 
L 138.344727 184.857229 
L 138.449455 197.029255 
L 138.554182 187.392938 
L 138.658909 207.47032 
L 138.763636 190.898476 
L 138.868364 211.232165 
L 139.077818 182.250161 
L 139.182545 185.97312 
L 139.287273 201.681443 
L 139.392 164.787171 
L 139.601455 212.987869 
L 139.706182 185.539786 
L 139.810909 193.494444 
L 139.915636 182.323973 
L 140.125091 199.32338 
L 140.229818 202.318213 
L 140.334545 216.64102 
L 140.544 194.968902 
L 140.648727 192.558608 
L 140.962909 221.661409 
L 141.067636 189.848194 
L 141.172364 191.445039 
L 141.277091 160.939687 
L 141.591273 225.094969 
L 141.800727 191.960822 
L 141.905455 202.32737 
L 142.010182 189.94299 
L 142.114909 192.812778 
L 142.324364 183.499961 
L 142.429091 192.131729 
L 142.533818 182.955969 
L 142.638545 183.582724 
L 142.743273 199.552041 
L 142.952727 174.109969 
L 143.162182 198.646075 
L 143.266909 190.033749 
L 143.371636 223.882145 
L 143.476364 182.741445 
L 143.581091 192.197447 
L 143.790545 219.544768 
L 143.895273 213.306069 
L 144 170.210417 
L 144.104727 179.985461 
L 144.209455 171.597186 
L 144.314182 200.120923 
L 144.418909 177.576469 
L 144.523636 208.325602 
L 144.733091 190.357413 
L 144.942545 208.04032 
L 145.047273 185.846838 
L 145.152 213.502165 
L 145.256727 196.404399 
L 145.570909 215.138585 
L 145.675636 190.712942 
L 145.780364 204.652037 
L 145.885091 171.460673 
L 145.989818 201.708101 
L 146.094545 184.937888 
L 146.199273 194.250856 
L 146.304 190.658411 
L 146.408727 217.269592 
L 146.513455 175.464623 
L 146.618182 198.772726 
L 146.722909 180.268481 
L 146.827636 205.297172 
L 146.932364 199.853571 
L 147.037091 218.63177 
L 147.246545 189.74703 
L 147.351273 193.339942 
L 147.456 198.522484 
L 147.560727 189.316712 
L 147.665455 200.105419 
L 147.770182 182.134838 
L 147.979636 191.736554 
L 148.084364 188.045744 
L 148.189091 191.560493 
L 148.293818 204.833903 
L 148.503273 189.503591 
L 148.608 195.729166 
L 148.712727 211.348151 
L 148.922182 172.86899 
L 149.131636 202.486722 
L 149.236364 180.803099 
L 149.341091 218.823368 
L 149.445818 190.239887 
L 149.550545 206.322612 
L 149.76 184.298243 
L 149.969455 207.974222 
L 150.074182 205.497987 
L 150.178909 207.74159 
L 150.388364 179.823125 
L 150.493091 203.512125 
L 150.597818 182.834743 
L 150.702545 200.84165 
L 150.807273 192.268612 
L 150.912 193.479439 
L 151.121455 198.080035 
L 151.330909 192.015896 
L 151.540364 217.006488 
L 151.645091 164.016296 
L 151.959273 216.885842 
L 152.168727 196.334525 
L 152.273455 204.917198 
L 152.378182 203.64866 
L 152.587636 218.050736 
L 152.692364 221.278262 
L 152.901818 192.7454 
L 153.111273 220.91939 
L 153.216 181.99074 
L 153.425455 215.086907 
L 153.530182 209.934712 
L 153.634909 193.527971 
L 153.739636 210.591381 
L 153.949091 172.468336 
L 154.053818 176.940871 
L 154.263273 196.935718 
L 154.368 165.793781 
L 154.472727 204.647957 
L 154.577455 201.145501 
L 154.682182 212.78752 
L 154.786909 203.416711 
L 154.891636 234.542064 
L 154.996364 150.864069 
L 155.205818 205.183758 
L 155.310545 204.815729 
L 155.415273 191.208609 
L 155.624727 206.065481 
L 155.729455 177.729778 
L 155.834182 183.935574 
L 155.938909 206.946037 
L 156.043636 199.543882 
L 156.148364 210.717891 
L 156.253091 194.929214 
L 156.462545 223.51275 
L 156.672 201.149071 
L 156.881455 218.714712 
L 157.090909 202.258668 
L 157.195636 215.954997 
L 157.405091 205.354899 
L 157.509818 200.133661 
L 157.614545 223.071712 
L 157.719273 210.238493 
L 157.824 169.269102 
L 157.928727 213.105661 
L 158.033455 204.099604 
L 158.138182 226.329622 
L 158.242909 220.565933 
L 158.347636 193.581081 
L 158.452364 218.670222 
L 158.557091 205.42928 
L 158.661818 214.240289 
L 158.766545 208.089204 
L 158.871273 226.718331 
L 158.976 204.152236 
L 159.185455 211.081845 
L 159.290182 193.574115 
L 159.394909 206.736618 
L 159.499636 201.293559 
L 159.604364 242.303296 
L 159.709091 198.997058 
L 159.813818 213.072406 
L 159.918545 209.734716 
L 160.023273 220.200508 
L 160.128 184.00485 
L 160.232727 207.654139 
L 160.337455 181.335916 
L 160.442182 216.609658 
L 160.546909 195.838923 
L 160.651636 219.427486 
L 160.756364 209.444487 
L 160.861091 221.159292 
L 160.965818 185.97516 
L 161.070545 203.959748 
L 161.175273 188.492901 
L 161.28 229.619763 
L 161.384727 196.346862 
L 161.594182 220.932529 
L 161.908364 196.350724 
L 162.013091 214.701084 
L 162.117818 197.181881 
L 162.222545 197.796886 
L 162.536727 221.679209 
L 162.641455 216.08481 
L 162.746182 218.179525 
L 162.850909 227.051537 
L 163.060364 208.631634 
L 163.165091 210.848079 
L 163.269818 204.334819 
L 163.479273 219.541686 
L 163.584 218.604168 
L 163.793455 230.363377 
L 164.002909 210.688748 
L 164.212364 215.988143 
L 164.317091 212.719518 
L 164.421818 202.406867 
L 164.526545 217.583442 
L 164.631273 210.70945 
L 164.736 211.808235 
L 164.840727 207.349496 
L 164.945455 229.646659 
L 165.154909 193.863927 
L 165.259636 220.804907 
L 165.469091 185.209005 
L 165.678545 223.214817 
L 165.888 216.053709 
L 165.992727 213.996503 
L 166.097455 216.324219 
L 166.202182 203.56938 
L 166.306909 205.980738 
L 166.411636 212.135946 
L 166.516364 175.017184 
L 166.725818 216.548947 
L 166.935273 228.149145 
L 167.04 196.569577 
L 167.144727 207.323462 
L 167.249455 203.893336 
L 167.458909 228.872291 
L 167.563636 200.559845 
L 167.668364 210.816402 
L 167.773091 196.512062 
L 167.877818 207.043626 
L 167.982545 195.598772 
L 168.192 214.951343 
L 168.296727 210.909077 
L 168.401455 199.292241 
L 168.506182 221.985133 
L 168.715636 200.593881 
L 168.820364 201.010387 
L 168.925091 225.664735 
L 169.029818 224.984826 
L 169.134545 196.475964 
L 169.239273 200.110811 
L 169.344 184.653295 
L 169.448727 215.164131 
L 169.553455 193.268213 
L 169.658182 196.537679 
L 169.762909 209.446391 
L 169.972364 200.561299 
L 170.181818 229.50503 
L 170.391273 178.110425 
L 170.496 178.496497 
L 170.705455 205.163789 
L 170.810182 187.844652 
L 170.914909 235.108993 
L 171.124364 205.780812 
L 171.229091 243.168548 
L 171.438545 203.665803 
L 171.543273 230.665476 
L 171.648 229.682155 
L 171.752727 210.413497 
L 171.857455 226.786056 
L 172.066909 217.637773 
L 172.171636 222.82211 
L 172.276364 242.381008 
L 172.381091 208.971941 
L 172.485818 226.875942 
L 172.590545 225.798954 
L 172.695273 227.287099 
L 172.8 225.06281 
L 172.904727 214.277022 
L 173.009455 219.055117 
L 173.114182 218.952455 
L 173.218909 215.970105 
L 173.323636 208.723647 
L 173.428364 225.504748 
L 173.742545 205.992982 
L 173.952 241.877247 
L 174.056727 210.437426 
L 174.266182 230.019381 
L 174.370909 225.11566 
L 174.475636 200.123527 
L 174.685091 239.864607 
L 174.789818 199.340566 
L 174.894545 226.912051 
L 174.999273 203.822475 
L 175.208727 224.513957 
L 175.313455 216.423278 
L 175.418182 222.731931 
L 175.522909 220.98347 
L 175.732364 231.917668 
L 175.837091 205.664523 
L 176.046545 223.639883 
L 176.256 200.096728 
L 176.465455 233.41311 
L 176.570182 233.129033 
L 176.674909 222.568331 
L 176.884364 230.580093 
L 176.989091 229.524061 
L 177.093818 211.867563 
L 177.198545 213.954969 
L 177.303273 207.472219 
L 177.408 208.892455 
L 177.617455 223.869576 
L 177.722182 219.084612 
L 177.826909 204.062887 
L 177.931636 212.486387 
L 178.036364 205.194906 
L 178.141091 217.37424 
L 178.245818 208.525663 
L 178.350545 237.051467 
L 178.455273 237.015277 
L 178.56 239.138185 
L 178.978909 206.227898 
L 179.083636 213.878787 
L 179.188364 194.419637 
L 179.293091 203.828649 
L 179.397818 201.303736 
L 179.607273 216.95181 
L 179.712 223.06639 
L 179.816727 203.938439 
L 180.026182 245.548192 
L 180.235636 204.182497 
L 180.340364 202.349298 
L 180.445091 222.253228 
L 180.549818 207.63787 
L 180.654545 224.704286 
L 180.759273 210.976769 
L 180.864 243.663646 
L 181.178182 219.326343 
L 181.282909 226.339631 
L 181.387636 214.053779 
L 181.492364 235.21459 
L 181.701818 197.027411 
L 181.806545 217.718295 
L 181.911273 208.018924 
L 182.120727 236.899292 
L 182.225455 207.114785 
L 182.330182 210.503735 
L 182.434909 240.047097 
L 182.539636 220.61058 
L 182.644364 224.728351 
L 182.853818 214.398318 
L 182.958545 229.7043 
L 183.168 220.625743 
L 183.272727 230.415272 
L 183.377455 221.93021 
L 183.482182 223.010671 
L 183.586909 221.680652 
L 183.796364 249.901855 
L 184.005818 213.013887 
L 184.110545 218.968909 
L 184.32 232.560216 
L 184.424727 215.015173 
L 184.738909 229.32101 
L 184.843636 222.263574 
L 184.948364 234.527216 
L 185.053091 232.809812 
L 185.262545 189.571045 
L 185.367273 217.825894 
L 185.472 201.14459 
L 185.576727 225.144021 
L 185.681455 217.149712 
L 185.890909 229.658101 
L 185.995636 217.845255 
L 186.100364 219.050641 
L 186.205091 209.764575 
L 186.414545 217.819519 
L 186.519273 211.97751 
L 186.624 212.251937 
L 186.728727 208.448645 
L 186.938182 232.642566 
L 187.147636 206.005047 
L 187.252364 205.318291 
L 187.357091 218.934151 
L 187.461818 195.240899 
L 187.671273 230.229527 
L 187.985455 199.965032 
L 188.090182 232.15827 
L 188.194909 230.963338 
L 188.299636 221.418746 
L 188.404364 235.760877 
L 188.613818 212.586623 
L 188.718545 235.908191 
L 188.928 210.443714 
L 189.137455 231.245235 
L 189.242182 222.695372 
L 189.346909 235.446962 
L 189.451636 209.016849 
L 189.661091 239.473967 
L 189.765818 242.383412 
L 189.975273 214.138186 
L 190.08 227.324151 
L 190.184727 225.069743 
L 190.289455 235.640144 
L 190.394182 232.573599 
L 190.603636 216.582501 
L 190.813091 241.438857 
L 190.917818 208.023627 
L 191.127273 228.709293 
L 191.232 219.902787 
L 191.336727 236.358766 
L 191.441455 234.014455 
L 191.546182 234.866443 
L 191.650909 206.34064 
L 191.965091 229.265801 
L 192.069818 230.372794 
L 192.174545 219.801243 
L 192.279273 241.793226 
L 192.384 215.395229 
L 192.488727 218.715097 
L 192.698182 193.250604 
L 192.907636 243.111478 
L 193.012364 231.085025 
L 193.117091 240.369909 
L 193.326545 228.29665 
L 193.431273 246.421018 
L 193.536 226.503704 
L 193.640727 231.17266 
L 193.745455 221.714997 
L 193.954909 239.438863 
L 194.059636 211.128619 
L 194.164364 237.796231 
L 194.269091 235.811942 
L 194.373818 230.142017 
L 194.478545 247.052086 
L 194.583273 221.90116 
L 194.688 229.296343 
L 194.792727 252.164876 
L 194.897455 240.786512 
L 195.002182 244.606187 
L 195.106909 233.143843 
L 195.316364 237.723982 
L 195.421091 209.21972 
L 195.525818 237.896403 
L 195.630545 216.765403 
L 195.735273 236.813968 
L 195.84 215.328502 
L 195.944727 239.481416 
L 196.049455 231.804184 
L 196.258909 210.306728 
L 196.363636 221.269587 
L 196.468364 220.974285 
L 196.573091 221.059191 
L 196.677818 242.254401 
L 196.782545 218.966555 
L 196.992 243.563827 
L 197.306182 232.183328 
L 197.410909 232.07069 
L 197.515636 231.164859 
L 197.620364 206.859558 
L 197.725091 221.403779 
L 197.829818 221.015157 
L 198.039273 237.765976 
L 198.144 233.198396 
L 198.248727 245.378999 
L 198.562909 211.730512 
L 198.667636 219.506158 
L 198.772364 241.526275 
L 198.877091 213.417313 
L 198.981818 215.724892 
L 199.191273 249.780418 
L 199.400727 221.202556 
L 199.505455 252.891809 
L 199.714909 192.945895 
L 199.819636 242.521628 
L 200.029091 216.092427 
L 200.238545 235.993743 
L 200.448 214.804392 
L 200.552727 219.033781 
L 200.657455 233.282575 
L 200.866909 225.864938 
L 200.971636 241.671544 
L 201.076364 211.438796 
L 201.181091 251.270698 
L 201.6 208.273262 
L 201.704727 229.291076 
L 201.809455 216.062595 
L 202.018909 222.874765 
L 202.123636 208.920692 
L 202.228364 243.09752 
L 202.437818 215.888921 
L 202.647273 238.320542 
L 202.856727 215.922604 
L 202.961455 242.507876 
L 203.066182 221.11375 
L 203.170909 224.945669 
L 203.275636 201.514669 
L 203.380364 250.051904 
L 203.485091 218.35372 
L 203.589818 226.509427 
L 203.694545 190.22908 
L 203.904 242.434162 
L 204.113455 236.153985 
L 204.218182 238.528974 
L 204.322909 231.337947 
L 204.427636 244.765491 
L 204.532364 241.877719 
L 204.637091 246.821053 
L 204.741818 226.645441 
L 204.846545 230.223185 
L 204.951273 222.942869 
L 205.056 255.195327 
L 205.160727 240.028511 
L 205.265455 241.860577 
L 205.370182 250.397983 
L 205.474909 241.461441 
L 205.579636 242.987236 
L 205.684364 251.352856 
L 205.893818 225.023587 
L 205.998545 248.756182 
L 206.103273 243.2444 
L 206.312727 248.81526 
L 206.417455 228.312469 
L 206.522182 247.393787 
L 206.626909 215.596999 
L 206.731636 256.642616 
L 206.941091 237.798059 
L 207.045818 237.384825 
L 207.150545 240.260471 
L 207.255273 217.793398 
L 207.36 236.646684 
L 207.464727 233.063955 
L 207.569455 252.155505 
L 207.674182 251.790913 
L 207.778909 250.697538 
L 208.093091 211.597433 
L 208.302545 259.297774 
L 208.407273 233.59892 
L 208.512 235.875614 
L 208.616727 243.336483 
L 208.721455 233.138011 
L 208.826182 235.842153 
L 208.930909 244.545856 
L 209.035636 214.623074 
L 209.140364 245.013785 
L 209.349818 231.937513 
L 209.454545 231.996005 
L 209.664 243.640362 
L 209.768727 242.608194 
L 209.873455 245.361107 
L 209.978182 220.793553 
L 210.082909 223.427627 
L 210.292364 248.238452 
L 210.501818 244.063123 
L 210.606545 252.195218 
L 210.711273 252.12679 
L 210.816 226.219594 
L 210.920727 246.769685 
L 211.025455 238.51495 
L 211.130182 241.158122 
L 211.234909 249.152165 
L 211.444364 244.544864 
L 211.549091 208.52696 
L 211.653818 218.664032 
L 211.758545 239.96486 
L 211.863273 222.364 
L 211.968 226.328619 
L 212.072727 243.226053 
L 212.282182 236.102377 
L 212.386909 236.137791 
L 212.596364 263.747071 
L 212.701091 228.18706 
L 212.805818 235.532882 
L 212.910545 231.434387 
L 213.015273 257.726375 
L 213.12 233.707381 
L 213.224727 260.82027 
L 213.329455 259.823091 
L 213.538909 220.693506 
L 213.853091 247.717738 
L 213.957818 227.100242 
L 214.062545 230.751163 
L 214.167273 249.25869 
L 214.272 234.322207 
L 214.481455 247.63332 
L 214.586182 252.949986 
L 214.795636 218.15119 
L 214.900364 240.963187 
L 215.005091 198.958205 
L 215.109818 254.089355 
L 215.214545 237.393298 
L 215.424 242.394381 
L 215.528727 226.375751 
L 215.633455 229.433312 
L 215.738182 214.285116 
L 215.842909 240.969973 
L 216.052364 236.291827 
L 216.157091 224.004695 
L 216.261818 227.891053 
L 216.366545 215.733729 
L 216.471273 244.315909 
L 216.680727 213.241637 
L 216.890182 234.971926 
L 216.994909 234.270361 
L 217.099636 254.736707 
L 217.413818 218.68909 
L 217.518545 245.999776 
L 217.623273 241.198185 
L 217.728 211.078737 
L 217.832727 250.466943 
L 218.042182 234.366475 
L 218.146909 249.896121 
L 218.251636 221.958214 
L 218.356364 226.286424 
L 218.461091 250.479192 
L 218.565818 235.196427 
L 218.775273 241.395463 
L 218.88 241.799345 
L 218.984727 234.610467 
L 219.089455 253.283579 
L 219.194182 217.92714 
L 219.298909 226.511071 
L 219.403636 248.10138 
L 219.613091 229.900135 
L 219.717818 233.987043 
L 219.822545 227.51639 
L 220.032 252.366478 
L 220.136727 255.627814 
L 220.241455 255.383092 
L 220.346182 249.113073 
L 220.450909 250.56425 
L 220.555636 239.593712 
L 220.765091 248.589462 
L 220.974545 244.139983 
L 221.079273 259.493523 
L 221.288727 233.670882 
L 221.393455 237.020545 
L 221.498182 235.438477 
L 221.602909 257.910661 
L 221.707636 241.590571 
L 221.812364 267.950727 
L 221.917091 259.568379 
L 222.021818 264.340789 
L 222.231273 240.646885 
L 222.336 258.589555 
L 222.545455 235.433291 
L 222.650182 240.61816 
L 222.754909 257.061328 
L 222.964364 251.860737 
L 223.069091 242.354659 
L 223.173818 254.266472 
L 223.278545 247.858846 
L 223.488 265.567563 
L 223.592727 240.119585 
L 223.697455 246.977433 
L 223.802182 236.002157 
L 223.906909 251.496758 
L 224.011636 245.962419 
L 224.116364 231.083273 
L 224.221091 254.033592 
L 224.325818 243.992598 
L 224.430545 252.847245 
L 224.535273 247.273473 
L 224.64 248.766148 
L 224.744727 233.276282 
L 224.954182 253.088897 
L 225.058909 252.855437 
L 225.163636 254.472788 
L 225.268364 232.119704 
L 225.582545 253.503949 
L 225.687273 247.96843 
L 225.792 261.246286 
L 225.896727 222.068861 
L 226.106182 262.011047 
L 226.315636 252.357538 
L 226.420364 237.818935 
L 226.629818 257.383431 
L 226.734545 226.209487 
L 226.839273 259.290155 
L 226.944 239.373834 
L 227.153455 258.882736 
L 227.467636 243.925828 
L 227.572364 261.227695 
L 227.677091 246.388441 
L 227.781818 253.670026 
L 227.886545 244.288497 
L 227.991273 246.916733 
L 228.096 252.682791 
L 228.200727 241.658617 
L 228.305455 255.274211 
L 228.514909 240.243719 
L 228.619636 270.675224 
L 228.724364 250.087503 
L 228.829091 259.232051 
L 229.038545 228.240127 
L 229.248 251.855117 
L 229.352727 235.010801 
L 229.562182 257.248488 
L 229.666909 247.868964 
L 229.876364 266.485391 
L 230.085818 249.595362 
L 230.190545 260.993681 
L 230.295273 259.033962 
L 230.4 213.676317 
L 230.504727 231.685914 
L 230.609455 218.663522 
L 230.818909 264.870096 
L 230.923636 227.054331 
L 231.028364 227.251463 
L 231.237818 260.495986 
L 231.342545 251.259552 
L 231.447273 261.753408 
L 231.552 261.599632 
L 231.656727 260.032418 
L 231.761455 252.575214 
L 231.866182 211.879964 
L 232.075636 238.207464 
L 232.180364 250.412148 
L 232.389818 203.756909 
L 232.599273 242.407124 
L 232.704 211.405058 
L 232.913455 242.72546 
L 233.018182 246.465421 
L 233.122909 215.667838 
L 233.437091 261.775178 
L 233.646545 241.352503 
L 233.751273 240.694592 
L 233.856 251.537158 
L 233.960727 237.224631 
L 234.065455 261.649002 
L 234.170182 241.487741 
L 234.274909 260.398616 
L 234.379636 256.987499 
L 234.589091 241.300668 
L 234.798545 225.3473 
L 235.008 262.457756 
L 235.217455 237.617463 
L 235.322182 246.083689 
L 235.426909 245.050811 
L 235.531636 247.080578 
L 235.636364 239.204575 
L 235.950545 257.047079 
L 236.055273 247.059854 
L 236.16 225.417878 
L 236.264727 263.742892 
L 236.369455 262.989062 
L 236.474182 220.869481 
L 236.578909 268.708698 
L 236.683636 249.992826 
L 236.788364 250.984735 
L 236.893091 248.970234 
L 236.997818 243.649736 
L 237.102545 270.294484 
L 237.312 235.991014 
L 237.416727 261.028653 
L 237.521455 244.119455 
L 237.730909 256.686976 
L 237.835636 244.324296 
L 238.045091 263.461122 
L 238.149818 244.946869 
L 238.254545 269.431117 
L 238.359273 242.365547 
L 238.464 243.99728 
L 238.568727 262.062505 
L 238.673455 254.476949 
L 238.778182 256.550257 
L 238.882909 252.291611 
L 238.987636 263.867893 
L 239.092364 260.804649 
L 239.197091 263.528112 
L 239.301818 262.755244 
L 239.406545 251.135017 
L 239.511273 266.169778 
L 239.616 248.770867 
L 239.720727 272.278663 
L 240.034909 247.965799 
L 240.139636 261.612779 
L 240.244364 248.733837 
L 240.349091 262.306704 
L 240.453818 238.009377 
L 240.558545 264.34556 
L 240.663273 252.0111 
L 240.768 253.823327 
L 240.977455 238.401981 
L 241.186909 265.900929 
L 241.291636 263.176383 
L 241.501091 272.018683 
L 241.710545 244.624513 
L 241.815273 263.075712 
L 241.92 241.680137 
L 242.024727 260.577707 
L 242.129455 259.726201 
L 242.234182 260.46413 
L 242.338909 228.649977 
L 242.443636 264.590944 
L 242.548364 247.905854 
L 242.653091 265.236844 
L 242.757818 245.802942 
L 242.862545 254.545374 
L 242.967273 250.986694 
L 243.072 262.337401 
L 243.176727 253.012462 
L 243.281455 268.228259 
L 243.386182 253.356301 
L 243.490909 256.39076 
L 243.595636 249.832318 
L 243.805091 267.203516 
L 243.909818 271.287999 
L 244.014545 236.793142 
L 244.224 264.815529 
L 244.328727 264.094567 
L 244.433455 255.262769 
L 244.538182 259.970883 
L 244.642909 230.822962 
L 245.061818 265.550745 
L 245.166545 240.580684 
L 245.271273 255.82321 
L 245.376 250.591795 
L 245.480727 257.611477 
L 245.794909 244.128765 
L 245.899636 268.051528 
L 246.109091 257.882961 
L 246.213818 238.074564 
L 246.318545 259.409913 
L 246.423273 257.562664 
L 246.528 248.305282 
L 246.632727 270.495384 
L 246.946909 246.858122 
L 247.051636 262.120281 
L 247.156364 259.699899 
L 247.261091 254.224507 
L 247.365818 258.712116 
L 247.470545 256.86565 
L 247.575273 270.169928 
L 247.68 233.644609 
L 247.784727 262.727015 
L 247.889455 260.341689 
L 247.994182 270.635345 
L 248.203636 248.834486 
L 248.413091 269.565002 
L 248.622545 236.736424 
L 248.832 272.699701 
L 249.146182 245.812154 
L 249.355636 264.107554 
L 249.460364 249.475058 
L 249.565091 279.363047 
L 249.669818 233.348732 
L 249.879273 261.345766 
L 249.984 259.576508 
L 250.193455 241.726336 
L 250.298182 264.493903 
L 250.402909 256.422231 
L 250.507636 225.217188 
L 250.612364 235.480618 
L 250.717091 263.177522 
L 250.821818 241.054104 
L 250.926545 263.321207 
L 251.031273 257.07831 
L 251.136 267.988547 
L 251.240727 250.501226 
L 251.345455 251.881962 
L 251.554909 257.780779 
L 251.659636 237.690667 
L 251.764364 246.125515 
L 251.869091 240.449987 
L 252.288 257.833588 
L 252.392727 282.709604 
L 252.602182 253.054248 
L 252.706909 279.06628 
L 252.811636 264.662616 
L 252.916364 278.890425 
L 253.021091 258.063104 
L 253.125818 276.5927 
L 253.335273 267.358355 
L 253.544727 276.494455 
L 253.649455 265.135338 
L 253.754182 265.884705 
L 253.858909 270.214426 
L 253.963636 257.714416 
L 254.068364 281.00769 
L 254.173091 267.299372 
L 254.277818 276.018832 
L 254.382545 271.270362 
L 254.696727 276.210591 
L 254.801455 281.254742 
L 254.906182 273.545679 
L 255.010909 275.110675 
L 255.115636 259.385143 
L 255.429818 279.700471 
L 255.534545 252.511256 
L 255.639273 275.6927 
L 255.744 263.710928 
L 255.848727 271.931642 
L 256.058182 250.800778 
L 256.162909 278.149286 
L 256.267636 262.33347 
L 256.477091 279.432364 
L 256.581818 268.855541 
L 256.791273 275.003033 
L 256.896 258.251488 
L 257.000727 271.1346 
L 257.105455 270.503068 
L 257.210182 251.768282 
L 257.419636 269.110579 
L 257.629091 257.410841 
L 257.733818 261.093346 
L 257.838545 283.581746 
L 257.943273 259.234213 
L 258.048 280.570391 
L 258.257455 257.95399 
L 258.362182 258.604712 
L 258.466909 253.793924 
L 258.571636 265.67728 
L 258.676364 263.072324 
L 258.781091 278.613448 
L 258.990545 255.638832 
L 259.095273 234.344845 
L 259.304727 265.533985 
L 259.514182 273.615549 
L 259.618909 270.32666 
L 259.723636 261.434912 
L 259.933091 278.458179 
L 260.037818 240.891095 
L 260.247273 272.633704 
L 260.352 266.402679 
L 260.456727 268.137937 
L 260.561455 262.956255 
L 260.666182 264.642967 
L 260.770909 255.865834 
L 260.875636 278.113012 
L 260.980364 244.702035 
L 261.085091 272.245872 
L 261.294545 253.125407 
L 261.399273 265.25409 
L 261.504 260.982647 
L 261.608727 274.766381 
L 261.713455 270.212161 
L 261.818182 258.6927 
L 261.922909 270.635405 
L 262.027636 269.680174 
L 262.132364 272.649222 
L 262.237091 271.644399 
L 262.341818 263.456592 
L 262.446545 267.593562 
L 262.551273 281.795411 
L 262.760727 251.399511 
L 262.970182 273.79956 
L 263.074909 275.837061 
L 263.179636 270.054967 
L 263.284364 270.879796 
L 263.389091 265.10801 
L 263.493818 277.551541 
L 263.598545 271.898621 
L 263.703273 259.98291 
L 263.808 271.743217 
L 263.912727 271.731209 
L 264.017455 269.009265 
L 264.122182 275.596497 
L 264.226909 270.142488 
L 264.436364 252.77026 
L 264.541091 274.128995 
L 264.750545 264.15972 
L 264.855273 269.445423 
L 264.96 263.682108 
L 265.064727 276.998234 
L 265.274182 257.723858 
L 265.378909 270.147262 
L 265.483636 265.891467 
L 265.797818 240.627176 
L 266.007273 268.450463 
L 266.216727 254.945985 
L 266.321455 253.156096 
L 266.426182 253.324714 
L 266.530909 265.988853 
L 266.635636 234.855816 
L 266.845091 262.953732 
L 266.949818 264.637797 
L 267.054545 262.409271 
L 267.368727 242.311314 
L 267.473455 246.29556 
L 267.578182 266.770266 
L 267.682909 252.395746 
L 267.892364 273.42491 
L 268.206545 257.955726 
L 268.311273 267.741058 
L 268.520727 260.791431 
L 268.625455 259.623236 
L 268.834909 283.259463 
L 268.939636 265.046363 
L 269.044364 272.404554 
L 269.149091 262.374432 
L 269.358545 279.614759 
L 269.463273 265.84401 
L 269.777455 279.687163 
L 269.986909 281.140457 
L 270.091636 280.870094 
L 270.196364 286.435224 
L 270.510545 265.181241 
L 270.615273 277.51274 
L 270.72 266.050462 
L 270.929455 275.10929 
L 271.034182 274.777418 
L 271.138909 269.982425 
L 271.243636 273.847168 
L 271.348364 251.639828 
L 271.557818 272.46287 
L 271.662545 271.785646 
L 271.872 258.063275 
L 272.081455 276.475673 
L 272.186182 263.593358 
L 272.290909 284.964755 
L 272.395636 261.001697 
L 272.709818 279.836317 
L 272.814545 269.998827 
L 273.024 282.19882 
L 273.128727 271.854535 
L 273.233455 273.725207 
L 273.338182 269.481152 
L 273.442909 257.145848 
L 273.652364 277.188655 
L 273.757091 258.728013 
L 273.966545 263.369715 
L 274.176 268.51075 
L 274.280727 266.580035 
L 274.385455 267.753129 
L 274.594909 282.727374 
L 274.699636 277.534566 
L 274.804364 256.939285 
L 275.013818 277.925259 
L 275.118545 270.967734 
L 275.223273 276.620863 
L 275.328 266.75471 
L 275.537455 279.864303 
L 275.642182 266.181545 
L 275.746909 278.171728 
L 275.851636 271.677367 
L 275.956364 278.334067 
L 276.165818 276.377309 
L 276.270545 278.097319 
L 276.375273 286.49163 
L 276.689455 264.092841 
L 276.898909 277.833277 
L 277.003636 274.185423 
L 277.108364 276.972107 
L 277.213091 273.808429 
L 277.317818 278.95285 
L 277.422545 277.822023 
L 277.632 257.675983 
L 277.736727 271.834807 
L 277.841455 264.873161 
L 278.050909 268.475162 
L 278.155636 270.528642 
L 278.260364 275.121029 
L 278.469818 258.054224 
L 278.679273 271.958968 
L 278.784 268.033512 
L 278.888727 271.851052 
L 278.993455 281.189476 
L 279.098182 270.920358 
L 279.202909 273.073545 
L 279.307636 280.899904 
L 279.412364 270.997715 
L 279.621818 277.927086 
L 279.726545 268.892257 
L 279.936 274.734143 
L 280.145455 267.768082 
L 280.250182 278.607411 
L 280.354909 262.821488 
L 280.564364 277.552881 
L 280.878545 255.422518 
L 280.983273 278.277947 
L 281.088 268.257812 
L 281.192727 273.95978 
L 281.297455 257.325477 
L 281.402182 271.914342 
L 281.506909 270.642321 
L 281.611636 261.273381 
L 281.716364 271.8015 
L 281.821091 267.551657 
L 281.925818 274.68445 
L 282.135273 273.165032 
L 282.24 271.857551 
L 282.344727 274.131835 
L 282.554182 261.113462 
L 282.763636 274.333875 
L 283.077818 256.567218 
L 283.287273 280.006579 
L 283.496727 258.650597 
L 283.601455 280.858305 
L 283.706182 245.147858 
L 283.915636 274.837633 
L 284.020364 267.627042 
L 284.125091 280.607837 
L 284.229818 272.677209 
L 284.439273 284.685585 
L 284.544 273.763815 
L 284.648727 274.260842 
L 284.753455 279.725488 
L 284.858182 212.611323 
L 285.067636 288.732887 
L 285.277091 278.269914 
L 285.381818 281.84016 
L 285.486545 268.29746 
L 285.591273 279.033554 
L 285.696 270.496599 
L 285.800727 273.252494 
L 285.905455 259.125223 
L 286.010182 284.276335 
L 286.114909 276.150379 
L 286.219636 278.515472 
L 286.324364 259.44638 
L 286.533818 274.908609 
L 286.638545 272.265654 
L 286.952727 282.666222 
L 287.057455 273.578104 
L 287.162182 281.036576 
L 287.266909 278.72038 
L 287.371636 283.218224 
L 287.476364 275.855132 
L 287.581091 281.537695 
L 287.685818 281.397269 
L 287.790545 277.042591 
L 287.895273 278.929687 
L 288.104727 285.891293 
L 288.209455 269.260022 
L 288.314182 271.613968 
L 288.418909 268.892398 
L 288.628364 287.485764 
L 288.733091 287.871184 
L 288.837818 268.570533 
L 288.942545 287.00398 
L 289.256727 266.857806 
L 289.466182 281.697456 
L 289.570909 268.594693 
L 289.780364 283.809538 
L 289.885091 286.517159 
L 289.989818 276.933613 
L 290.094545 283.354329 
L 290.304 278.051203 
L 290.408727 283.044201 
L 290.513455 261.235791 
L 290.618182 284.968832 
L 290.827636 275.244176 
L 290.932364 274.786547 
L 291.037091 275.61415 
L 291.141818 274.253343 
L 291.246545 262.265406 
L 291.351273 279.956764 
L 291.456 276.294001 
L 291.665455 281.05086 
L 291.770182 286.946323 
L 291.874909 268.90497 
L 291.979636 280.694393 
L 292.084364 268.053356 
L 292.189091 283.16508 
L 292.293818 272.918907 
L 292.398545 281.066617 
L 292.608 270.478415 
L 292.712727 278.324702 
L 292.817455 277.088116 
L 292.922182 274.011045 
L 293.026909 262.955346 
L 293.236364 284.815499 
L 293.341091 260.509524 
L 293.550545 281.008765 
L 293.864727 252.207733 
L 294.074182 275.630517 
L 294.178909 274.681117 
L 294.283636 270.529149 
L 294.388364 286.751739 
L 294.493091 275.10166 
L 294.597818 280.140712 
L 294.702545 279.647199 
L 294.807273 270.760387 
L 295.016727 285.145054 
L 295.121455 279.748728 
L 295.330909 281.332739 
L 295.435636 277.161917 
L 295.540364 279.947867 
L 295.645091 275.286581 
L 295.749818 279.666799 
L 296.064 270.546183 
L 296.273455 278.182121 
L 296.378182 255.26153 
L 296.587636 281.543863 
L 296.692364 279.689684 
L 296.797091 270.195485 
L 296.901818 279.641547 
L 297.111273 267.979761 
L 297.320727 292.850049 
L 297.425455 277.940261 
L 297.530182 283.945764 
L 297.634909 277.554973 
L 297.739636 255.136151 
L 297.949091 287.097844 
L 298.053818 279.884549 
L 298.158545 282.682185 
L 298.263273 281.190178 
L 298.368 281.21626 
L 298.472727 274.173676 
L 298.577455 278.5025 
L 298.682182 277.680513 
L 298.786909 278.739984 
L 298.891636 284.648229 
L 298.996364 279.498729 
L 299.101091 280.108611 
L 299.205818 284.019216 
L 299.415273 270.376917 
L 299.52 272.314397 
L 299.624727 269.926711 
L 299.834182 280.707358 
L 300.043636 284.428761 
L 300.148364 282.772085 
L 300.253091 272.299294 
L 300.357818 274.151126 
L 300.462545 283.744228 
L 300.567273 283.740089 
L 300.672 260.606836 
L 300.776727 286.426453 
L 300.881455 276.816486 
L 300.986182 287.335523 
L 301.090909 259.514422 
L 301.195636 284.689516 
L 301.405091 274.706982 
L 301.509818 276.45639 
L 301.614545 292.527421 
L 301.719273 289.163018 
L 301.928727 278.818026 
L 302.033455 278.140796 
L 302.138182 276.617456 
L 302.347636 291.982388 
L 302.452364 270.723937 
L 302.766545 286.287035 
L 302.976 269.896155 
L 303.080727 286.738395 
L 303.185455 270.120395 
L 303.290182 282.613434 
L 303.394909 275.631484 
L 303.604364 282.152303 
L 303.709091 280.816951 
L 303.813818 284.699032 
L 303.918545 280.016384 
L 304.023273 284.242544 
L 304.232727 279.239309 
L 304.337455 285.492545 
L 304.546909 264.887146 
L 304.756364 284.80291 
L 304.965818 281.031089 
L 305.070545 283.869638 
L 305.175273 280.780651 
L 305.28 285.670526 
L 305.384727 283.880603 
L 305.594182 288.575429 
L 305.698909 275.161453 
L 305.803636 275.797312 
L 305.908364 278.996289 
L 306.013091 267.942085 
L 306.222545 292.56856 
L 306.327273 287.533058 
L 306.432 290.33917 
L 306.536727 284.203495 
L 306.641455 286.706525 
L 306.746182 277.542415 
L 307.060364 289.121394 
L 307.165091 286.185309 
L 307.269818 274.66087 
L 307.374545 287.507025 
L 307.479273 281.264391 
L 307.584 281.92317 
L 307.688727 285.618745 
L 307.793455 282.049375 
L 307.898182 273.908758 
L 308.002909 282.579238 
L 308.212364 271.983521 
L 308.317091 289.603539 
L 308.421818 257.398239 
L 308.526545 266.258322 
L 308.631273 286.38914 
L 308.840727 263.458543 
L 308.945455 266.154173 
L 309.154909 284.150245 
L 309.259636 276.986786 
L 309.364364 286.640672 
L 309.573818 259.657001 
L 309.783273 285.564422 
L 309.992727 276.020628 
L 310.097455 277.699484 
L 310.202182 287.453047 
L 310.306909 277.269605 
L 310.516364 284.009197 
L 310.621091 266.140917 
L 310.830545 275.64059 
L 311.04 274.294722 
L 311.144727 273.75425 
L 311.249455 274.525486 
L 311.354182 272.778599 
L 311.458909 273.385955 
L 311.668364 288.367235 
L 311.773091 267.874805 
L 312.087273 282.644662 
L 312.192 272.134348 
L 312.296727 284.834648 
L 312.506182 276.235018 
L 312.610909 286.237531 
L 312.820364 282.849464 
L 312.925091 283.127577 
L 313.029818 279.718772 
L 313.344 290.087933 
L 313.658182 280.086606 
L 313.867636 288.682227 
L 313.972364 284.832978 
L 314.181818 287.828157 
L 314.286545 283.255613 
L 314.391273 286.291582 
L 314.496 285.800887 
L 314.705455 281.404279 
L 314.810182 283.437578 
L 314.914909 278.670281 
L 315.019636 280.989003 
L 315.124364 278.62798 
L 315.229091 279.123721 
L 315.333818 284.444857 
L 315.438545 274.959125 
L 315.648 285.626791 
L 315.752727 283.630105 
L 315.857455 284.905105 
L 315.962182 277.062793 
L 316.066909 291.547359 
L 316.171636 279.794364 
L 316.276364 289.046722 
L 316.381091 281.008365 
L 316.485818 286.913737 
L 316.695273 277.718587 
L 316.8 282.300981 
L 316.904727 272.724217 
L 317.009455 290.67627 
L 317.114182 288.730289 
L 317.218909 280.170429 
L 317.428364 286.957943 
L 317.533091 285.746052 
L 317.637818 282.42599 
L 317.742545 292.47475 
L 317.847273 282.99596 
L 318.056727 293.426149 
L 318.161455 290.872946 
L 318.266182 280.933729 
L 318.475636 283.861925 
L 318.580364 292.706242 
L 318.685091 283.130224 
L 318.789818 285.205907 
L 318.894545 292.537143 
L 319.104 271.459273 
L 319.208727 285.255103 
L 319.313455 268.582549 
L 319.418182 289.994412 
L 319.522909 286.802044 
L 319.627636 286.938487 
L 319.837091 289.269766 
L 320.046545 273.525799 
L 320.151273 290.01181 
L 320.360727 281.60969 
L 320.465455 281.030922 
L 320.779636 289.251487 
L 320.884364 288.182222 
L 320.989091 291.081011 
L 321.093818 268.676203 
L 321.303273 286.977213 
L 321.408 285.401026 
L 321.512727 279.287885 
L 321.617455 289.053287 
L 321.826909 282.008049 
L 321.931636 283.521706 
L 322.036364 281.671793 
L 322.141091 276.131994 
L 322.245818 278.81852 
L 322.350545 274.976834 
L 322.56 286.729812 
L 322.664727 276.880746 
L 322.769455 289.585158 
L 322.874182 284.233659 
L 323.083636 288.297253 
L 323.188364 277.388948 
L 323.502545 293.292539 
L 323.816727 278.989574 
L 323.921455 288.721753 
L 324.026182 276.367678 
L 324.130909 289.627105 
L 324.235636 287.108171 
L 324.340364 278.532926 
L 324.445091 286.418765 
L 324.549818 277.090253 
L 324.759273 293.386196 
L 324.864 276.570878 
L 324.968727 287.166732 
L 325.073455 283.282246 
L 325.282909 290.577158 
L 325.387636 285.969172 
L 325.597091 290.639869 
L 325.701818 284.534226 
L 325.806545 286.045841 
L 325.911273 290.631556 
L 326.120727 282.619486 
L 326.225455 268.832094 
L 326.330182 288.655966 
L 326.434909 284.727632 
L 326.539636 291.420059 
L 326.749091 286.581224 
L 326.853818 283.902241 
L 327.063273 291.989344 
L 327.272727 289.247318 
L 327.377455 277.635758 
L 327.482182 284.264792 
L 327.586909 282.417012 
L 327.796364 289.207261 
L 327.901091 288.054482 
L 328.005818 289.136153 
L 328.110545 277.284918 
L 328.32 290.51627 
L 328.529455 281.731821 
L 328.634182 283.701891 
L 328.738909 291.728518 
L 328.948364 285.932922 
L 329.053091 289.846317 
L 329.262545 283.653834 
L 329.367273 270.96803 
L 329.472 291.638265 
L 329.576727 286.241915 
L 329.681455 290.156809 
L 329.786182 285.541086 
L 329.890909 290.611369 
L 330.100364 274.486708 
L 330.205091 289.83852 
L 330.309818 283.203031 
L 330.414545 291.347136 
L 330.519273 285.077208 
L 330.624 260.881957 
L 330.728727 291.66849 
L 330.938182 279.081067 
L 331.147636 282.388824 
L 331.252364 278.048553 
L 331.461818 290.293163 
L 331.671273 278.771441 
L 331.776 280.00704 
L 331.880727 286.413681 
L 331.985455 284.911971 
L 332.090182 285.037322 
L 332.299636 273.141026 
L 332.509091 283.419397 
L 332.613818 286.253222 
L 332.718545 285.694014 
L 332.823273 282.199681 
L 332.928 273.019215 
L 333.032727 289.965573 
L 333.242182 273.767231 
L 333.346909 285.446217 
L 333.451636 278.435039 
L 333.556364 292.561441 
L 333.975273 283.756688 
L 334.184727 286.103612 
L 334.289455 268.511344 
L 334.498909 292.254012 
L 334.708364 282.826213 
L 334.917818 288.795798 
L 335.022545 282.635647 
L 335.127273 286.030305 
L 335.232 293.530845 
L 335.336727 282.822147 
L 335.441455 293.636937 
L 335.650909 284.301841 
L 335.860364 288.336871 
L 335.965091 286.570954 
L 336.069818 289.358484 
L 336.174545 283.393984 
L 336.279273 286.291306 
L 336.384 283.654201 
L 336.488727 292.336803 
L 336.698182 284.975879 
L 336.907636 289.563669 
L 337.012364 270.342069 
L 337.117091 291.953682 
L 337.221818 285.736948 
L 337.326545 288.064111 
L 337.536 259.839241 
L 337.640727 257.182356 
L 337.850182 291.543913 
L 338.059636 279.224068 
L 338.373818 288.813231 
L 338.583273 280.478657 
L 338.688 282.602008 
L 338.792727 279.284606 
L 339.002182 284.695505 
L 339.106909 280.784769 
L 339.316364 285.51439 
L 339.421091 278.46676 
L 339.630545 289.926624 
L 339.735273 288.623329 
L 339.84 282.124524 
L 339.944727 290.351711 
L 340.049455 286.515117 
L 340.154182 290.823432 
L 340.363636 281.532677 
L 340.468364 290.018518 
L 340.573091 285.179992 
L 340.782545 286.602869 
L 340.887273 291.377105 
L 340.992 264.416885 
L 341.201455 286.02721 
L 341.410909 284.718438 
L 341.515636 290.980679 
L 341.620364 279.226284 
L 341.725091 280.590744 
L 341.829818 287.33202 
L 341.934545 286.712861 
L 342.144 283.325116 
L 342.248727 284.57001 
L 342.353455 291.871763 
L 342.458182 288.646074 
L 342.562909 292.933534 
L 342.772364 286.510545 
L 343.086545 291.180365 
L 343.191273 288.183765 
L 343.296 292.496932 
L 343.400727 289.68372 
L 343.505455 292.888616 
L 343.610182 290.76147 
L 343.819636 291.935716 
L 344.029091 284.104773 
L 344.133818 292.018319 
L 344.238545 288.989236 
L 344.343273 292.569037 
L 344.448 287.302714 
L 344.552727 287.516488 
L 344.657455 289.597872 
L 344.762182 281.697793 
L 344.971636 289.331034 
L 345.181091 290.410379 
L 345.285818 289.159038 
L 345.390545 291.795659 
L 345.495273 291.17987 
L 345.6 284.818727 
L 345.704727 292.062505 
L 345.809455 288.579701 
L 346.123636 291.72747 
L 346.228364 282.236541 
L 346.333091 284.928218 
L 346.437818 283.63811 
L 346.542545 291.689305 
L 346.647273 285.170246 
L 346.752 287.080262 
L 346.856727 293.050742 
L 346.961455 272.331787 
L 347.066182 287.542937 
L 347.170909 285.015212 
L 347.275636 291.124226 
L 347.380364 290.550896 
L 347.485091 286.015858 
L 347.589818 275.606385 
L 347.694545 289.334482 
L 347.904 285.180377 
L 348.008727 286.152728 
L 348.113455 289.485465 
L 348.218182 284.30623 
L 348.427636 292.318947 
L 348.532364 286.369467 
L 348.637091 287.280635 
L 348.741818 284.135035 
L 348.846545 287.912245 
L 349.056 279.784572 
L 349.160727 289.771334 
L 349.370182 274.743784 
L 349.579636 289.692467 
L 349.684364 282.466695 
L 349.789091 284.459292 
L 349.893818 292.050148 
L 349.998545 284.239141 
L 350.103273 287.823865 
L 350.208 284.782309 
L 350.312727 277.891666 
L 350.417455 279.225162 
L 350.626909 289.487052 
L 350.731636 287.970976 
L 350.836364 293.284535 
L 351.150545 285.518809 
L 351.36 289.005789 
L 351.464727 272.50239 
L 351.569455 277.785365 
L 351.674182 289.151111 
L 351.778909 280.520301 
L 351.883636 290.273738 
L 351.988364 281.348873 
L 352.093091 291.335121 
L 352.197818 286.960104 
L 352.302545 291.598786 
L 352.407273 284.935924 
L 352.512 293.31384 
L 352.616727 288.83745 
L 352.721455 292.727245 
L 353.035636 289.320767 
L 353.140364 287.155929 
L 353.245091 290.656823 
L 353.349818 283.705751 
L 353.454545 285.336493 
L 353.559273 291.995133 
L 353.664 283.298959 
L 353.873455 293.476041 
L 353.978182 285.221375 
L 354.082909 288.514714 
L 354.187636 282.753864 
L 354.292364 285.063724 
L 354.501818 294.978047 
L 354.606545 293.42718 
L 354.816 276.015998 
L 354.920727 288.891972 
L 355.025455 283.626276 
L 355.234909 289.448704 
L 355.339636 289.78453 
L 355.444364 277.635941 
L 355.758545 294.055638 
L 355.863273 286.957715 
L 355.968 290.024537 
L 356.072727 283.220802 
L 356.282182 289.649287 
L 356.386909 289.823831 
L 356.491636 285.666063 
L 356.596364 288.82079 
L 356.805818 287.550742 
L 356.910545 293.669731 
L 357.015273 283.835968 
L 357.12 292.670892 
L 357.434182 281.169611 
L 357.538909 286.356534 
L 357.643636 285.145837 
L 357.748364 293.487714 
L 357.853091 285.224791 
L 357.957818 292.923751 
L 358.167273 277.716877 
L 358.272 280.204619 
L 358.376727 289.011067 
L 358.481455 283.319316 
L 358.690909 289.829856 
L 358.795636 281.596668 
L 358.900364 290.486112 
L 359.005091 286.686405 
L 359.109818 287.350839 
L 359.214545 283.319269 
L 359.319273 292.769356 
L 359.424 284.206639 
L 359.633455 289.018733 
L 359.738182 282.429437 
L 359.842909 287.756618 
L 360.261818 277.415571 
L 360.471273 293.485387 
L 360.680727 287.747784 
L 360.785455 293.269868 
L 360.994909 288.048956 
L 361.099636 291.012881 
L 361.204364 284.200208 
L 361.309091 290.057787 
L 361.413818 289.698563 
L 361.518545 283.398994 
L 361.832727 292.354739 
L 361.937455 293.578217 
L 362.146909 286.564391 
L 362.251636 293.841124 
L 362.356364 287.191238 
L 362.461091 292.432625 
L 362.565818 291.311707 
L 362.670545 286.419995 
L 362.775273 289.908179 
L 362.88 288.293997 
L 363.089455 282.158118 
L 363.298909 290.286574 
L 363.613091 292.782202 
L 363.717818 285.569003 
L 363.822545 292.816876 
L 363.927273 283.992603 
L 364.136727 291.875387 
L 364.241455 294.405696 
L 364.450909 284.976661 
L 364.660364 288.354053 
L 364.765091 289.203482 
L 364.974545 293.355014 
L 365.079273 283.618485 
L 365.184 287.158849 
L 365.393455 277.526033 
L 365.498182 289.568462 
L 365.602909 286.992471 
L 365.812364 292.961395 
L 366.021818 280.620996 
L 366.231273 288.688123 
L 366.336 281.717359 
L 366.545455 289.216141 
L 366.650182 292.554398 
L 366.859636 291.68286 
L 366.964364 284.463082 
L 367.069091 290.345111 
L 367.173818 287.044843 
L 367.278545 291.128155 
L 367.383273 290.545381 
L 367.488 288.646147 
L 367.592727 277.918597 
L 367.802182 291.313805 
L 367.906909 290.262298 
L 368.011636 294.753499 
L 368.116364 284.629794 
L 368.325818 292.206348 
L 368.430545 292.49196 
L 368.535273 284.414356 
L 368.64 289.018986 
L 368.744727 288.754506 
L 368.954182 292.439387 
L 369.058909 284.516048 
L 369.268364 292.871329 
L 369.373091 293.963047 
L 369.792 283.720734 
L 369.896727 290.660855 
L 370.001455 287.789055 
L 370.106182 293.90958 
L 370.210909 290.985169 
L 370.315636 283.285005 
L 370.420364 293.397687 
L 370.525091 292.318181 
L 370.629818 289.936322 
L 370.734545 290.89832 
L 370.839273 284.331535 
L 370.944 289.847902 
L 371.048727 287.36207 
L 371.153455 293.689182 
L 371.362909 281.767004 
L 371.572364 291.971768 
L 371.677091 290.744177 
L 371.781818 286.601224 
L 371.991273 294.152615 
L 372.200727 286.366016 
L 372.305455 285.692198 
L 372.410182 293.399635 
L 372.514909 289.432129 
L 372.619636 289.480852 
L 372.724364 291.612729 
L 372.829091 290.369526 
L 372.933818 291.091187 
L 373.038545 292.818445 
L 373.143273 285.4243 
L 373.352727 290.9185 
L 373.666909 293.085269 
L 373.771636 293.465275 
L 373.876364 287.988329 
L 374.085818 290.871049 
L 374.190545 290.754519 
L 374.4 285.77292 
L 374.504727 294.591213 
L 374.714182 287.13932 
L 374.923636 291.272946 
L 375.028364 283.776592 
L 375.133091 292.953736 
L 375.237818 284.287076 
L 375.342545 285.219196 
L 375.447273 292.037323 
L 375.552 291.917642 
L 375.656727 293.635595 
L 375.761455 287.426864 
L 375.866182 294.662062 
L 375.970909 285.473363 
L 376.075636 292.661386 
L 376.285091 288.340865 
L 376.389818 291.614868 
L 376.494545 288.100592 
L 376.599273 291.384713 
L 376.808727 285.37337 
L 376.913455 294.594593 
L 377.018182 291.347264 
L 377.122909 276.157886 
L 377.227636 289.342169 
L 377.332364 287.727927 
L 377.437091 292.988358 
L 377.541818 288.089888 
L 377.646545 290.118234 
L 377.751273 286.114749 
L 377.856 293.473385 
L 377.960727 280.94018 
L 378.065455 290.0558 
L 378.170182 282.826183 
L 378.379636 290.997216 
L 378.484364 288.53367 
L 378.589091 284.602885 
L 378.693818 285.338622 
L 378.798545 287.464671 
L 378.903273 281.588839 
L 379.008 282.567999 
L 379.112727 291.750453 
L 379.217455 286.76003 
L 379.322182 291.390702 
L 379.426909 279.74826 
L 379.531636 290.634115 
L 379.636364 288.983798 
L 379.741091 292.927573 
L 379.845818 287.404989 
L 379.950545 274.840117 
L 380.055273 290.806603 
L 380.16 282.87866 
L 380.264727 293.18461 
L 380.369455 292.41172 
L 380.474182 285.400468 
L 380.578909 290.416049 
L 380.683636 274.404755 
L 380.893091 291.554746 
L 381.102545 285.016029 
L 381.312 291.890348 
L 381.521455 279.638512 
L 381.626182 291.000689 
L 381.730909 289.809612 
L 381.940364 278.45129 
L 382.045091 292.60001 
L 382.149818 283.395936 
L 382.254545 294.200497 
L 382.359273 273.861005 
L 382.464 284.424173 
L 382.568727 283.780085 
L 382.673455 292.705192 
L 382.778182 274.57515 
L 382.882909 294.27317 
L 382.987636 293.375966 
L 383.092364 286.152057 
L 383.197091 292.951437 
L 383.301818 291.541774 
L 383.406545 294.268166 
L 383.616 288.693094 
L 383.720727 292.161054 
L 383.930182 290.406166 
L 384.034909 294.680372 
L 384.139636 292.776734 
L 384.244364 292.895423 
L 384.349091 293.922696 
L 384.663273 288.815068 
L 384.872727 295.235176 
L 384.977455 285.980813 
L 385.082182 294.221359 
L 385.186909 293.817366 
L 385.291636 293.855182 
L 385.396364 287.956929 
L 385.501091 292.648117 
L 385.605818 291.636318 
L 385.710545 282.79123 
L 385.92 292.723809 
L 386.024727 292.457003 
L 386.129455 290.571883 
L 386.234182 292.62836 
L 386.338909 287.950498 
L 386.653091 293.303702 
L 386.757818 283.649636 
L 386.967273 295.142443 
L 387.072 289.161455 
L 387.176727 290.908772 
L 387.281455 284.306864 
L 387.490909 294.165049 
L 387.595636 294.472845 
L 387.805091 290.419446 
L 388.014545 285.060211 
L 388.224 293.253844 
L 388.328727 284.922235 
L 388.433455 292.397319 
L 388.747636 282.733502 
L 388.852364 284.168427 
L 388.957091 287.465654 
L 389.061818 287.205545 
L 389.166545 293.766373 
L 389.271273 292.335405 
L 389.480727 283.424523 
L 389.585455 288.997629 
L 389.690182 285.76735 
L 389.899636 294.670488 
L 390.109091 291.19827 
L 390.213818 281.661515 
L 390.318545 283.481906 
L 390.423273 294.451282 
L 390.632727 287.92418 
L 390.737455 271.631116 
L 390.946909 294.164207 
L 391.051636 293.976376 
L 391.156364 290.674661 
L 391.261091 293.10017 
L 391.470545 286.603537 
L 391.575273 294.458661 
L 391.68 292.240747 
L 391.784727 282.766685 
L 391.889455 288.995282 
L 391.994182 284.283147 
L 392.098909 291.215243 
L 392.203636 286.59295 
L 392.308364 287.059797 
L 392.413091 276.611513 
L 392.517818 291.591531 
L 392.622545 286.271166 
L 392.832 292.237916 
L 392.936727 277.74372 
L 393.146182 292.930066 
L 393.250909 290.697948 
L 393.355636 282.056833 
L 393.565091 291.709131 
L 393.669818 289.681664 
L 393.879273 282.208109 
L 393.984 284.584189 
L 394.193455 291.989215 
L 394.298182 286.055471 
L 394.402909 291.898026 
L 394.612364 286.051772 
L 394.717091 291.587429 
L 394.821818 281.816235 
L 395.031273 288.553211 
L 395.240727 286.707835 
L 395.345455 287.976391 
L 395.450182 294.48465 
L 395.554909 287.298765 
L 395.659636 292.88484 
L 395.764364 284.347937 
L 395.973818 292.443234 
L 396.183273 294.936207 
L 396.288 284.601086 
L 396.392727 290.806604 
L 396.497455 283.324075 
L 396.706909 293.132912 
L 396.811636 289.186136 
L 397.021091 292.416836 
L 397.230545 288.571897 
L 397.335273 290.552008 
L 397.44 280.902676 
L 397.649455 291.962973 
L 397.754182 289.585518 
L 397.858909 292.795423 
L 397.963636 289.077363 
L 398.173091 291.457943 
L 398.277818 289.071847 
L 398.382545 280.756898 
L 398.487273 295.488 
L 398.487273 295.488 
" clip-path="url(#p844d8c9fc1)" style="fill: none; stroke: #d62728; stroke-width: 1.5; stroke-linecap: square"/>
   </g>
   <g id="line2d_15">
    <path d="M 73.832727 77.858636 
L 90.065455 126.039609 
L 106.298182 145.711864 
L 122.530909 169.653953 
L 138.763636 175.338447 
L 154.996364 159.30305 
L 171.229091 173.571464 
L 187.461818 174.863268 
L 203.694545 165.677111 
L 219.927273 158.349836 
L 236.16 150.293136 
L 252.392727 173.312548 
L 268.625455 147.224613 
L 284.858182 164.525967 
L 301.090909 137.600031 
L 317.323636 144.701108 
L 333.556364 143.584776 
L 349.789091 109.305222 
L 366.021818 100.61824 
L 382.254545 75.81237 
L 398.487273 114.892697 
" clip-path="url(#p844d8c9fc1)" style="fill: none; stroke: #17becf; stroke-width: 1.5; stroke-linecap: square"/>
   </g>
   <g id="patch_3">
    <path d="M 57.6 307.584 
L 57.6 41.472 
" style="fill: none; stroke: #000000; stroke-width: 0.8; stroke-linejoin: miter; stroke-linecap: square"/>
   </g>
   <g id="patch_4">
    <path d="M 414.72 307.584 
L 414.72 41.472 
" style="fill: none; stroke: #000000; stroke-width: 0.8; stroke-linejoin: miter; stroke-linecap: square"/>
   </g>
   <g id="patch_5">
    <path d="M 57.6 307.584 
L 414.72 307.584 
" style="fill: none; stroke: #000000; stroke-width: 0.8; stroke-linejoin: miter; stroke-linecap: square"/>
   </g>
   <g id="patch_6">
    <path d="M 57.6 41.472 
L 414.72 41.472 
" style="fill: none; stroke: #000000; stroke-width: 0.8; stroke-linejoin: miter; stroke-linecap: square"/>
   </g>
   <g id="text_16">
    <!-- Learning curve of CNN -->
    <g transform="translate(168.628125 35.472) scale(0.12 -0.12)">
     <defs>
      <path id="DejaVuSans-63" d="M 3122 3366 
L 3122 2828 
Q 2878 2963 2633 3030 
Q 2388 3097 2138 3097 
Q 1578 3097 1268 2742 
Q 959 2388 959 1747 
Q 959 1106 1268 751 
Q 1578 397 2138 397 
Q 2388 397 2633 464 
Q 2878 531 3122 666 
L 3122 134 
Q 2881 22 2623 -34 
Q 2366 -91 2075 -91 
Q 1284 -91 818 406 
Q 353 903 353 1747 
Q 353 2603 823 3093 
Q 1294 3584 2113 3584 
Q 2378 3584 2631 3529 
Q 2884 3475 3122 3366 
z
" transform="scale(0.015625)"/>
      <path id="DejaVuSans-75" d="M 544 1381 
L 544 3500 
L 1119 3500 
L 1119 1403 
Q 1119 906 1312 657 
Q 1506 409 1894 409 
Q 2359 409 2629 706 
Q 2900 1003 2900 1516 
L 2900 3500 
L 3475 3500 
L 3475 0 
L 2900 0 
L 2900 538 
Q 2691 219 2414 64 
Q 2138 -91 1772 -91 
Q 1169 -91 856 284 
Q 544 659 544 1381 
z
M 1991 3584 
L 1991 3584 
z
" transform="scale(0.015625)"/>
      <path id="DejaVuSans-76" d="M 191 3500 
L 800 3500 
L 1894 563 
L 2988 3500 
L 3597 3500 
L 2284 0 
L 1503 0 
L 191 3500 
z
" transform="scale(0.015625)"/>
      <path id="DejaVuSans-66" d="M 2375 4863 
L 2375 4384 
L 1825 4384 
Q 1516 4384 1395 4259 
Q 1275 4134 1275 3809 
L 1275 3500 
L 2222 3500 
L 2222 3053 
L 1275 3053 
L 1275 0 
L 697 0 
L 697 3053 
L 147 3053 
L 147 3500 
L 697 3500 
L 697 3744 
Q 697 4328 969 4595 
Q 1241 4863 1831 4863 
L 2375 4863 
z
" transform="scale(0.015625)"/>
      <path id="DejaVuSans-43" d="M 4122 4306 
L 4122 3641 
Q 3803 3938 3442 4084 
Q 3081 4231 2675 4231 
Q 1875 4231 1450 3742 
Q 1025 3253 1025 2328 
Q 1025 1406 1450 917 
Q 1875 428 2675 428 
Q 3081 428 3442 575 
Q 3803 722 4122 1019 
L 4122 359 
Q 3791 134 3420 21 
Q 3050 -91 2638 -91 
Q 1578 -91 968 557 
Q 359 1206 359 2328 
Q 359 3453 968 4101 
Q 1578 4750 2638 4750 
Q 3056 4750 3426 4639 
Q 3797 4528 4122 4306 
z
" transform="scale(0.015625)"/>
      <path id="DejaVuSans-4e" d="M 628 4666 
L 1478 4666 
L 3547 763 
L 3547 4666 
L 4159 4666 
L 4159 0 
L 3309 0 
L 1241 3903 
L 1241 0 
L 628 0 
L 628 4666 
z
" transform="scale(0.015625)"/>
     </defs>
     <use xlink:href="#DejaVuSans-4c"/>
     <use xlink:href="#DejaVuSans-65" x="53.962891"/>
     <use xlink:href="#DejaVuSans-61" x="115.486328"/>
     <use xlink:href="#DejaVuSans-72" x="176.765625"/>
     <use xlink:href="#DejaVuSans-6e" x="216.128906"/>
     <use xlink:href="#DejaVuSans-69" x="279.507812"/>
     <use xlink:href="#DejaVuSans-6e" x="307.291016"/>
     <use xlink:href="#DejaVuSans-67" x="370.669922"/>
     <use xlink:href="#DejaVuSans-20" x="434.146484"/>
     <use xlink:href="#DejaVuSans-63" x="465.933594"/>
     <use xlink:href="#DejaVuSans-75" x="520.914062"/>
     <use xlink:href="#DejaVuSans-72" x="584.292969"/>
     <use xlink:href="#DejaVuSans-76" x="625.40625"/>
     <use xlink:href="#DejaVuSans-65" x="684.585938"/>
     <use xlink:href="#DejaVuSans-20" x="746.109375"/>
     <use xlink:href="#DejaVuSans-6f" x="777.896484"/>
     <use xlink:href="#DejaVuSans-66" x="839.078125"/>
     <use xlink:href="#DejaVuSans-20" x="874.283203"/>
     <use xlink:href="#DejaVuSans-43" x="906.070312"/>
     <use xlink:href="#DejaVuSans-4e" x="975.894531"/>
     <use xlink:href="#DejaVuSans-4e" x="1050.699219"/>
    </g>
   </g>
   <g id="legend_1">
    <g id="patch_7">
     <path d="M 64.6 302.584 
L 119.875 302.584 
Q 121.875 302.584 121.875 300.584 
L 121.875 272.22775 
Q 121.875 270.22775 119.875 270.22775 
L 64.6 270.22775 
Q 62.6 270.22775 62.6 272.22775 
L 62.6 300.584 
Q 62.6 302.584 64.6 302.584 
z
" style="fill: #ffffff; opacity: 0.8; stroke: #cccccc; stroke-linejoin: miter"/>
    </g>
    <g id="line2d_16">
     <path d="M 66.6 278.326187 
L 76.6 278.326187 
L 86.6 278.326187 
" style="fill: none; stroke: #d62728; stroke-width: 1.5; stroke-linecap: square"/>
    </g>
    <g id="text_17">
     <!-- train -->
     <g transform="translate(94.6 281.826187) scale(0.1 -0.1)">
      <use xlink:href="#DejaVuSans-74"/>
      <use xlink:href="#DejaVuSans-72" x="39.208984"/>
      <use xlink:href="#DejaVuSans-61" x="80.322266"/>
      <use xlink:href="#DejaVuSans-69" x="141.601562"/>
      <use xlink:href="#DejaVuSans-6e" x="169.384766"/>
     </g>
    </g>
    <g id="line2d_17">
     <path d="M 66.6 293.004312 
L 76.6 293.004312 
L 86.6 293.004312 
" style="fill: none; stroke: #17becf; stroke-width: 1.5; stroke-linecap: square"/>
    </g>
    <g id="text_18">
     <!-- val -->
     <g transform="translate(94.6 296.504312) scale(0.1 -0.1)">
      <defs>
       <path id="DejaVuSans-6c" d="M 603 4863 
L 1178 4863 
L 1178 0 
L 603 0 
L 603 4863 
z
" transform="scale(0.015625)"/>
      </defs>
      <use xlink:href="#DejaVuSans-76"/>
      <use xlink:href="#DejaVuSans-61" x="59.179688"/>
      <use xlink:href="#DejaVuSans-6c" x="120.458984"/>
     </g>
    </g>
   </g>
  </g>
 </g>
 <defs>
  <clipPath id="p844d8c9fc1">
   <rect x="57.6" y="41.472" width="357.12" height="266.112"/>
  </clipPath>
 </defs>
</svg>
